<?xml version="1.0" encoding="UTF-8" standalone="no"?>
<svg
   xmlns:dc="http://purl.org/dc/elements/1.1/"
   xmlns:cc="http://creativecommons.org/ns#"
   xmlns:rdf="http://www.w3.org/1999/02/22-rdf-syntax-ns#"
   xmlns:svg="http://www.w3.org/2000/svg"
   xmlns="http://www.w3.org/2000/svg"
   viewBox="0 0 147.44 28.186666"
   height="28.186666"
   width="147.44"
   xml:space="preserve"
   id="svg2"
   version="1.1"><metadata
     id="metadata8"><rdf:RDF><cc:Work
         rdf:about=""><dc:format>image/svg+xml</dc:format><dc:type
           rdf:resource="http://purl.org/dc/dcmitype/StillImage" /></cc:Work></rdf:RDF></metadata><defs
     id="defs6" /><g
     transform="matrix(1.3333333,0,0,-1.3333333,0,28.186667)"
     id="g10"><g
       transform="scale(0.1)"
       id="g12"><path
         id="path14"
         style="fill:#1d6434;fill-opacity:1;fill-rule:nonzero;stroke:none"
         d="m 330.852,83.0156 -13.813,92.0434 h -37.184 c 0,0 1.141,-2.895 0.157,-8.438 -0.766,-4.32 -3.02,-9.707 -3.02,-9.707 L 218.215,25.2578 c 0,0 -3.051,-6.6055 -6.02,-11.7617 -4.644,-8.07032 -8.164,-9.91016 -8.164,-9.91016 h 48.989 l 35.515,82.72266 13.02,-84.87891 h 16.715 l 58.71,84.35161 -9.8,-82.19536 h 48.726 c 0,0 -5.078,2.51562 -4.16,11.05856 0.922,8.5391 1.684,17.0313 1.684,17.0313 L 427.355,175.059 H 393.918 L 330.852,83.0156" /><path
         id="path16"
         style="fill:#1d6434;fill-opacity:1;fill-rule:nonzero;stroke:none"
         d="m 593.191,174.637 h -150 c 0,0 3.645,-1.242 3.227,-10.203 -0.18,-4.047 -0.727,-10.571 -0.727,-10.571 l -1.558,-17.73 h 35.816 L 452.41,31.7617 c 0,0 -3.34,-12.289 -6.094,-19.414 -2.753,-7.12504 -6.25,-8.76176 -6.25,-8.76176 h 52.5 c 0,0 -3.101,5.10547 -1.863,9.53906 1.238,4.4336 4.785,18.125 4.785,18.125 l 27.664,104.883 h 25.766 l 17.605,19.375 c 0,0 4.036,4.183 10.098,10.824 6.067,6.641 16.57,8.305 16.57,8.305" /><path
         id="path18"
         style="fill:#1d6434;fill-opacity:1;fill-rule:nonzero;stroke:none"
         d="m 662.063,55.8789 c -5.747,-5.1211 -11.985,-9.1562 -18.555,-12 -6.074,-2.6133 -12.231,-3.9492 -18.305,-3.9492 l -1.773,0.0117 c -12.485,0 -21.907,4.0313 -28.828,12.3242 -6.934,8.3282 -8.364,19.6914 -4.387,34.7461 3.664,13.9063 11.457,26.0973 23.183,36.2343 11.68,10.113 24.297,15.039 38.582,15.039 5.879,0 11.458,-1.316 16.567,-3.906 5.058,-2.563 9.031,-6.25 12.168,-11.254 l 7.223,-11.496 14.164,53.723 -3.832,2.265 c -5.797,3.438 -12.032,6.094 -18.473,7.879 -6.484,1.809 -13.586,2.727 -21.184,2.727 -12.351,-0.168 -24.265,-2.032 -35.429,-5.524 -11.258,-3.535 -22.051,-9.14 -32.079,-16.683 -11,-8.293 -20.414,-18.207 -27.98,-29.477 -7.566,-11.285 -13.02,-23.437 -16.172,-36.0507 -3.406,-12.9688 -4.402,-24.9219 -2.922,-35.5 1.496,-10.8672 6.035,-21.1445 13.457,-30.5 C 564.172,15.8789 572.336,9.59375 581.77,5.80469 590.879,2.125 601.887,0.171875 614.473,0 h 0.078 c 7.551,0 15.051,0.808594 22.273,2.41016 7.246,1.59375 14.653,4.09375 22.004,7.42578 l 2.551,1.14846 15.269,57.9062 -14.585,-13.0117" /><path
         id="path20"
         style="fill:#1d6434;fill-opacity:1;fill-rule:nonzero;stroke:none"
         d="m 739.07,42.0898 8.11,30.75 h 10.64 c 10.051,-0.1679 14.375,-2.4101 16.243,-4.2656 1.433,-1.4297 3.164,-4.0351 1.574,-10.0742 -1.352,-5.1055 -4.242,-9.0234 -8.828,-11.9609 -4.59,-2.9453 -11.079,-4.4493 -20.469,-4.4493 -0.039,0 -0.07,0 -0.102,0 z M 680.066,3.58594 h 66.039 c 11.993,0 22.594,1.78125 31.5,5.30469 9.004,3.54687 16.973,8.87107 23.672,15.82027 4.028,4.1329 7.641,8.9375 10.766,14.2539 3.145,5.375 5.523,11.0118 7.027,16.7618 2.153,8.164 2.59,15.7422 1.313,22.5351 -1.32,6.9141 -4.043,12.9688 -8.363,18.2774 -4.723,5.1759 -10.672,9.0039 -17.657,11.3949 -6.675,2.269 -14.468,3.421 -23.179,3.421 h -13.848 l 6.543,24.778 h 61.133 l 5.496,20.844 2.82,10.703 1.84,6.957 H 725.691 c 0,0 3.926,-3.949 2.485,-9.992 -1.446,-6.047 -5.102,-19.352 -5.102,-19.352 L 693.563,33.4609 c 0,0 -3.805,-14.5664 -5.583,-20.4336 -2.812,-9.33589 -7.914,-9.44136 -7.914,-9.44136" /><path
         id="path22"
         style="fill:#1d6434;fill-opacity:1;fill-rule:nonzero;stroke:none"
         d="m 955.066,174.637 c 0,0 2.5,-5.828 -1.66,-12.078 -2.926,-4.387 -6.621,-9.329 -6.621,-9.329 l -34.883,-50.667 -17.183,72.074 h -53.188 c 0,0 5.332,-2.977 6.938,-8.778 1.597,-5.8 3.902,-15.539 3.902,-15.539 L 876.328,55.1992 836.902,3.58594 h 58.164 c 0,0 -5.078,5.91797 -1.25,11.26176 3.829,5.3476 7.872,10.7382 7.872,10.7382 L 1010.07,174.637 h -55.004" /><path
         id="path24"
         style="fill:#1d6434;fill-opacity:1;fill-rule:nonzero;stroke:none"
         d="m 243.605,166.934 c -4.574,7.289 -13.527,8.125 -22.597,8.125 H 187.629 128.762 48.4492 c -12.7187,0 -20.3945,0.046 -27.3476,1.718 C 9.38672,179.59 0,188.461 0,188.461 c 0,0 5.48047,-20.664 22.7148,-36.734 22.9219,-21.356 69.0118,-17.918 106.0472,-18.133 h 58.433 c 0,0 24.493,0.25 29.825,-1.035 11.25,-2.711 14.242,-12.188 14.242,-12.188 l 12.246,27.344 c 4.058,8.383 3.18,14.316 0.097,19.219" /><path
         id="path26"
         style="fill:#ed1c24;fill-opacity:1;fill-rule:nonzero;stroke:none"
         d="m 214.172,100.762 c -4.594,7.289 -13.535,8.125 -22.609,8.125 H 158.184 135.422 81.2617 c -12.7187,0 -21.9922,0.375 -30.7851,2.996 -7.4414,2.219 -18.3868,10.406 -18.3868,10.406 0,0 5.4805,-20.664 22.7149,-36.7343 22.918,-21.3555 43.5859,-17.918 80.6173,-18.1328 h 22.32 c 0,0 24.504,0.25 29.836,-1.0352 11.25,-2.7109 14.231,-12.1875 14.231,-12.1875 L 214.07,81.543 c 4.055,8.3828 3.176,14.3164 0.102,19.219" /><path
         id="path28"
         style="fill:#1d6434;fill-opacity:1;fill-rule:nonzero;stroke:none"
         d="m 186.875,37.0195 c -4.578,7.293 -13.523,8.125 -22.605,8.125 H 94.793 c 0,0 6.816,-3.0117 11.152,-7.8086 4.375,-4.8476 6.965,-7.6093 6.965,-7.6093 0,0 11.731,-14.2969 19.285,-19.2657 11.567,-7.60543 23.891,-6.78121 23.891,-6.78121 h 24.394 l 6.297,14.12111 c 4.051,8.3867 3.172,14.3164 0.098,19.2187" /><path
         id="path30"
         style="fill:#1d6434;fill-opacity:1;fill-rule:nonzero;stroke:none"
         d="m 106.594,45.043 c -12.7073,0 -17.2463,-0.0586 -25.3323,2.5156 -9.1719,2.9141 -17.8125,10.8867 -17.8125,10.8867 0,0 10.7031,-20.664 27.9492,-36.7305 C 113.367,1.23438 133.313,3.54297 167.566,3.58594 L 160.215,45.043 h -53.621" /><path
         id="path32"
         style="fill:#1d6434;fill-opacity:1;fill-rule:nonzero;stroke:none"
         d="m 1067.65,180.355 h 3.54 c 4.16,0 7.51,1.383 7.51,4.743 0,2.949 -2.18,4.929 -6.91,4.929 -1.98,0 -3.36,-0.199 -4.14,-0.39 z m -0.2,-18.171 h -7.51 v 32.394 c 2.97,0.383 7.12,0.977 12.44,0.977 6.12,0 8.89,-0.977 11.07,-2.559 1.97,-1.391 3.36,-3.758 3.36,-6.914 0,-3.957 -2.97,-6.527 -6.73,-7.703 v -0.395 c 3.17,-0.988 4.74,-3.562 5.74,-7.902 0.99,-4.945 1.77,-6.719 2.37,-7.898 h -7.91 c -0.98,1.179 -1.58,3.953 -2.56,7.898 -0.6,3.352 -2.57,4.941 -6.72,4.941 h -3.55 z m -19.95,16.781 c 0,-14.414 10.86,-25.871 25.29,-25.871 14.02,-0.203 24.69,11.457 24.69,25.679 0,14.418 -10.67,26.071 -25.1,26.071 -14.02,0 -24.88,-11.653 -24.88,-25.879 z m 58.26,0 c 0,-18.164 -14.61,-32.582 -33.17,-32.582 -18.58,0 -33.39,14.418 -33.39,32.582 0,18.18 14.81,32.39 33.59,32.39 18.36,0 32.97,-14.21 32.97,-32.39" /></g></g></svg>