<?xml version="1.0" encoding="UTF-8"?>
<svg id="Layer_1" data-name="Layer 1" xmlns="http://www.w3.org/2000/svg" viewBox="0 0 571.76 436.24">
  <defs>
    <style>
      .cls-1 {
        fill: #00853f;
      }

      .cls-2 {
        fill: #231f20;
      }
    </style>
  </defs>
  <polygon class="cls-1" points="302.24 150.59 331.22 150.59 316.66 113.73 302.24 150.59"/>
  <path class="cls-1" d="m334.7,159.55h-35.94l-8.41,20.98c-1.87,4.68-3.07,10.15,3.2,14.56h-25.25c6.95-4.54,9.62-10.55,12.16-16.97l26.72-67.59c.54-1.34,2.41-6.41-3.07-8.95h21.9l20.85,51.63v-62.49h-115.23v115.24h115.23v-16.11l-12.16-30.29Z"/>
  <path class="cls-2" d="m131.8,277.85h15.7l-7.88-19.97-7.81,19.97Zm12.88-26.55l17.43,43.18c1.16,2.82,2.6,5.57,6.15,7.45h-15.55c3.4-1.52,2.82-3.98,2.17-5.64l-5.5-13.6h-19.46l-4.56,11.36c-1.01,2.53-1.67,5.5,1.74,7.88h-13.67c3.76-2.46,5.21-5.71,6.59-9.19l14.47-36.6c.29-.72,1.3-3.47-1.67-4.85h11.86Z"/>
  <path class="cls-2" d="m171.36,301.93c3.25-2.31,3.33-4.85,3.33-7.23v-36.17c0-2.02,0-4.92-3.33-7.23h17.94c3.97,0,18.01.07,18.01,13.38,0,9.62-8.25,14.47-16.35,14.47-2.1,0-4.34-.43-6.15-.94,5.78-.22,14.18-2.97,14.18-12.08,0-5.93-4.05-9.48-10.85-9.48-2.02,0-4.13.29-6.08.72v36.17c0,2.31.36,6.44,4.48,8.39h-15.19Z"/>
  <path class="cls-2" d="m256.56,260.99c-1.37-.94-6.73-4.63-14.32-4.63-9.48,0-18.95,6.29-18.95,18.66,0,10.56,6.08,21.84,20.69,21.84,9.98,0,14.83-3.55,17-5.35l-4.92,9.69c-4.26,1.37-7.88,1.81-12.66,1.81-21.7,0-28.43-14.83-28.43-26.04,0-13.89,9.84-26.76,28.14-26.76,4.41,0,7.02.65,9.41,1.16,1.45.36,2.46.58,4.05.79v8.83Z"/>
  <path class="cls-2" d="m295.4,251.3v8.32c-1.37-1.59-3.33-2.68-7.6-2.61l-9.77.22v14.47h10.42c.94,0,1.81-.07,2.61-.22v7.88c-1.38-1.37-2.97-1.88-5.5-1.88h-7.52v18.16c4.41.43,7.96.51,9.4.51,7.96,0,11.93-1.59,15.12-4.41l-3.69,10.2h-31.54c3.33-2.31,3.33-5.35,3.33-7.23v-36.17c0-1.88,0-4.92-3.33-7.23h28.07Z"/>
  <path class="cls-2" d="m346.75,271.26v-12.73c0-2.39-.07-4.92-3.33-7.23h14.03c-3.25,2.31-3.33,4.85-3.33,7.23v36.16c0,2.39.07,4.92,3.33,7.23h-14.03c3.26-2.31,3.33-4.84,3.33-7.23v-17.65h-27.85v17.65c0,2.39.07,4.92,3.33,7.23h-14.04c3.25-2.31,3.33-4.84,3.33-7.23v-36.16c0-2.39-.07-4.92-3.33-7.23h14.04c-3.26,2.31-3.33,4.85-3.33,7.23v12.73h27.85Z"/>
  <path class="cls-2" d="m378.93,277.85h15.7l-7.88-19.97-7.81,19.97Zm12.87-26.55l17.43,43.18c1.16,2.82,2.6,5.57,6.14,7.45h-15.55c3.4-1.52,2.82-3.98,2.17-5.64l-5.5-13.6h-19.46l-4.55,11.36c-1.01,2.53-1.67,5.5,1.74,7.88h-13.67c3.76-2.46,5.21-5.71,6.59-9.19l14.47-36.6c.29-.72,1.3-3.47-1.67-4.85h11.86Z"/>
  <path class="cls-2" d="m454.94,294.7c0,2.03,0,4.92,3.33,7.23h-14.04c3.33-2.31,3.33-5.21,3.33-7.23v-37.61h-14.54v7.96c0,18.09-1.45,37.98-14.61,37.98-1.37,0-2.54-.29-3.55-.65l-.94-8.32c1.95,1.96,3.69,2.1,4.48,2.1,6.94,0,8.39-17.51,8.39-30.31,0-7.74-.36-12.8-5.28-14.54h36.82c-3.33,2.39-3.4,4.92-3.4,7.23v36.17Z"/>
  <path class="cls-2" d="m197.29,328.47c-.56-.38-2.73-1.88-5.82-1.88-3.85,0-7.69,2.55-7.69,7.58,0,4.29,2.47,8.87,8.4,8.87,4.05,0,6.02-1.44,6.9-2.17l-2,3.93c-1.73.56-3.2.74-5.14.74-8.81,0-11.54-6.02-11.54-10.57,0-5.64,4-10.87,11.43-10.87,1.79,0,2.85.27,3.82.47.59.15,1,.23,1.65.32v3.58Z"/>
  <path class="cls-2" d="m209.06,342.15c0,.82,0,2,1.35,2.94h-5.7c1.35-.94,1.35-2.11,1.35-2.94v-15.27l-3.49-.03c-.71,0-1.97.12-3.06,1.23l1.18-3.67c.7.12,1.11.12,1.88.12h11.36c.62,0,1.26-.06,1.79-.12l-1.03,3.44c-.56-1-1.61-1-2.35-1l-3.29.03v15.27Z"/>
  <path class="cls-2" d="m217.57,345.09c1.32-.94,1.35-1.97,1.35-2.93v-14.69c0-.82,0-2-1.35-2.94h7.29c1.61,0,7.31.03,7.31,5.43,0,3.91-3.35,5.88-6.64,5.88-.85,0-1.76-.18-2.5-.38,2.35-.09,5.75-1.21,5.75-4.91,0-2.41-1.64-3.85-4.4-3.85-.83,0-1.67.12-2.47.29v14.69c0,.94.15,2.61,1.82,3.41h-6.17Z"/>
  <path class="cls-2" d="m238.83,335.31h6.37l-3.2-8.11-3.17,8.11Zm5.23-10.78l7.08,17.53c.47,1.15,1.06,2.26,2.5,3.03h-6.31c1.38-.62,1.14-1.62.88-2.29l-2.23-5.52h-7.9l-1.85,4.61c-.41,1.02-.68,2.23.7,3.2h-5.55c1.53-1,2.11-2.32,2.67-3.73l5.88-14.86c.12-.29.53-1.41-.67-1.97h4.81Z"/>
  <path class="cls-2" d="m256.14,326.67c-.82-1.17-1.47-1.76-2.32-2.14l2.5-.09c2.26-.09,1.96-.26,3.2,1.49l3.99,5.79,3.41-4.55c.18-.24.62-.88.62-1.41,0-.32-.15-.94-1.15-1.24h5.64l-7.2,9.13,6.05,8.78c1.06,1.53,2.03,2.23,2.88,2.64h-4.87c-.68-.67-.97-1.14-1.35-1.73l-4.82-7.28-4.5,5.93c-.5.64-.79,1.17-.79,1.62,0,.68.53,1.2,1.2,1.47h-6.2c.85-.88,1.47-1.61,2.14-2.47l6.7-8.52-5.14-7.43Z"/>
  <path class="cls-2" d="m278.22,324.53l5.73,12.27,3.93-8.93c.18-.35.41-1.09.41-1.91,0-.41-.15-1.09-.86-1.44h4.5l-7.37,16.39c-1.73,3.87-4.2,4.46-6.26,4.46-1.23,0-2.15-.18-3.17-.8l1.96-2.2c.41.33.88.53,1.62.53,1.82,0,2.94-1.32,3.44-2.38l.56-1.14c-1.29-.91-1.62-1.62-2.03-2.41l-5.17-10.28c-.73-1.47-1.56-1.97-2.05-2.18h4.76Z"/>
  <path class="cls-2" d="m298.42,342.65c.79.12,1.97.27,3.06.27,4.49,0,4.96-2.76,4.96-4.02,0-1.7-1-4.26-5.58-4.26-.23,0-.82,0-2.44.12v7.9Zm0-9.92l1.62.03c3.08.06,4.49-1.58,4.49-3.29,0-1.56-1.11-2.91-3.79-2.91-.62,0-1.65.09-2.32.17v5.99Zm3.55-8.34c3.47-.06,5.91,1.73,5.91,4.61,0,2.61-2,3.76-3.12,4.17,2.94.32,5.05,2.43,5.05,5.52,0,2.61-1.44,6.4-8.61,6.4h-7.13c1.35-.94,1.35-2.11,1.35-2.93v-14.69c0-.82,0-2-1.35-2.93l7.9-.15Z"/>
  <path class="cls-2" d="m317.65,335.31h6.37l-3.2-8.11-3.17,8.11Zm5.23-10.78l7.08,17.53c.47,1.15,1.06,2.26,2.5,3.03h-6.31c1.38-.62,1.14-1.62.88-2.29l-2.23-5.52h-7.9l-1.85,4.61c-.41,1.02-.68,2.23.7,3.2h-5.55c1.53-1,2.11-2.32,2.67-3.73l5.88-14.86c.12-.29.53-1.41-.67-1.97h4.81Z"/>
  <path class="cls-2" d="m349.36,332.64v-5.17c0-.97-.03-2-1.35-2.94h5.7c-1.32.94-1.35,1.97-1.35,2.94v14.69c0,.97.03,2,1.35,2.93h-5.7c1.32-.94,1.35-1.97,1.35-2.93v-7.17h-11.31v7.17c0,.97.03,2,1.35,2.93h-5.7c1.32-.94,1.35-1.97,1.35-2.93v-14.69c0-.97-.03-2-1.35-2.94h5.7c-1.32.94-1.35,1.97-1.35,2.94v5.17h11.31Z"/>
  <path class="cls-2" d="m373.34,332.64v-5.17c0-.97-.03-2-1.35-2.94h5.7c-1.32.94-1.35,1.97-1.35,2.94v14.69c0,.97.03,2,1.35,2.93h-5.7c1.32-.94,1.35-1.97,1.35-2.93v-7.17h-11.31v7.17c0,.97.03,2,1.35,2.93h-5.7c1.32-.94,1.35-1.97,1.35-2.93v-14.69c0-.97-.03-2-1.35-2.94h5.7c-1.32.94-1.35,1.97-1.35,2.94v5.17h11.31Z"/>
  <path class="cls-2" d="m392.07,326.76c-.59-.12-1.2-.18-1.96-.18-3.2,0-4.17,1.91-4.17,3.73,0,2.91,3.05,3.99,5.28,3.82-2.06,3.76-6.64,11.13-9.96,11.13-.41,0-.94-.03-3.2-.17,3.55-1.62,7.61-7.11,9.49-9.87-2.61-.47-4.99-2.2-4.99-5.02,0-1.88.59-5.79,7.43-5.79.85,0,1.7.03,2.56.06,1.29.03,2.59.06,3.88.06-1.35.94-1.35,2.11-1.35,2.93v14.69c0,.82,0,2,1.35,2.94h-5.7c1.35-.94,1.35-2.11,1.35-2.94v-15.39Z"/>
</svg>