<?xml version="1.0" encoding="UTF-8"?>
<svg id="_Слой_1" data-name="Слой 1" xmlns="http://www.w3.org/2000/svg" viewBox="0 0 564.48 530.53">
  <defs>
    <style>
      .cls-1, .cls-2 {
        fill: #fff;
      }

      .cls-2 {
        fill-rule: evenodd;
      }

      .cls-3 {
        fill: #e94832;
      }
    </style>
  </defs>
  <rect class="cls-3" width="564.48" height="530.53"/>
  <g>
    <path class="cls-1" d="M78,75.25h2.99v25.2h-2.99v-25.2Z"/>
    <path class="cls-1" d="M107.45,75.25v25.2h-3.71l-14.22-21.2.29,10.65v10.55h-2.99v-25.2h3.67l14.22,21.2-.25-10.66v-10.55h2.99Z"/>
    <path class="cls-1" d="M131.57,93.43c0,5.15-4.46,7.42-9.21,7.42-6.7,0-9.9-3.53-10.69-7.95h3.02c.83,3.35,3.2,5.15,7.6,5.15,3.89,0,6.26-1.62,6.26-4.5s-2.34-3.35-7.24-4.43c-5.33-1.19-8.96-2.48-8.96-6.95,0-4.71,4.18-7.31,9.04-7.31,5.9,0,8.93,2.92,9.83,6.7h-3.02c-.94-2.41-3.1-3.89-6.77-3.89s-6.08,1.69-6.08,4.5c0,2.09,1.58,2.88,6.66,4.03,6.01,1.33,9.57,2.48,9.57,7.23Z"/>
    <path class="cls-1" d="M155.94,75.25v15.26c0,6.95-4.32,10.33-9.97,10.33s-9.97-3.38-9.97-10.33v-15.26h3.06v15.12c0,5.33,2.95,7.63,6.91,7.63s6.91-2.3,6.91-7.63v-15.12h3.06Z"/>
    <path class="cls-1" d="M169.66,90.69h-4.9v9.75h-2.99v-25.2h9.97c5.58,0,8.53,3.24,8.53,7.78,0,4.18-2.52,7.05-7.09,7.59l8.06,9.83h-3.71l-7.88-9.75ZM164.76,88.03h6.7c4,0,5.79-2.16,5.79-5s-1.84-4.93-5.79-4.93h-6.7v9.94Z"/>
    <path class="cls-1" d="M201.23,92.89h-11.7l-2.99,7.56h-3.17l10.08-25.2h3.85l10.08,25.2h-3.17l-2.99-7.56ZM200.11,90.04l-4.72-11.95-4.72,11.95h9.43Z"/>
    <path class="cls-1" d="M231.9,75.25v25.2h-3.71l-14.22-21.2.29,10.65v10.55h-2.99v-25.2h3.67l14.22,21.2-.25-10.66v-10.55h2.99Z"/>
    <path class="cls-1" d="M236.69,87.85c0-7.45,5.54-12.99,12.96-12.99,5.69,0,10.22,3.35,11.95,8.42h-3.2c-1.51-3.38-4.75-5.58-8.78-5.58-5.69,0-9.9,4.36-9.9,10.15s4.21,10.15,9.9,10.15c4.03,0,7.27-2.2,8.78-5.58h3.2c-1.73,5.08-6.26,8.42-11.95,8.42-7.42,0-12.96-5.54-12.96-12.99Z"/>
    <path class="cls-1" d="M269.02,78.09v7.99h12.13v2.84h-12.13v8.67h12.99v2.84h-15.98v-25.2h15.98v2.84h-12.99Z"/>
    <path class="cls-1" d="M315.24,93.43c0,5.15-4.46,7.42-9.21,7.42-6.7,0-9.9-3.53-10.69-7.95h3.02c.83,3.35,3.2,5.15,7.59,5.15,3.89,0,6.26-1.62,6.26-4.5s-2.34-3.35-7.23-4.43c-5.33-1.19-8.96-2.48-8.96-6.95,0-4.71,4.18-7.31,9.04-7.31,5.9,0,8.93,2.92,9.83,6.7h-3.02c-.94-2.41-3.1-3.89-6.77-3.89s-6.08,1.69-6.08,4.5c0,2.09,1.58,2.88,6.66,4.03,6.01,1.33,9.57,2.48,9.57,7.23Z"/>
    <path class="cls-1" d="M319.67,75.25h2.99v25.2h-2.99v-25.2Z"/>
    <path class="cls-1" d="M349.11,75.25v25.2h-3.71l-14.22-21.2.29,10.65v10.55h-2.99v-25.2h3.67l14.22,21.2-.25-10.66v-10.55h2.99Z"/>
    <path class="cls-1" d="M353.91,87.85c0-7.45,5.54-12.99,12.96-12.99,5.69,0,10.22,3.35,11.95,8.42h-3.2c-1.51-3.38-4.75-5.58-8.78-5.58-5.69,0-9.9,4.36-9.9,10.15s4.21,10.15,9.9,10.15c4.03,0,7.27-2.2,8.78-5.58h3.2c-1.73,5.08-6.26,8.42-11.95,8.42-7.42,0-12.96-5.54-12.96-12.99Z"/>
    <path class="cls-1" d="M386.23,78.09v7.99h12.13v2.84h-12.13v8.67h12.99v2.84h-15.98v-25.2h15.98v2.84h-12.99Z"/>
    <path class="cls-1" d="M420.97,75.25v25.2h-2.99v-21.71l-5.79,2.34v-2.95l7.42-2.88h1.37Z"/>
    <path class="cls-1" d="M444.23,83.92c0,4.39-2.66,7.85-9.18,16.52h-3.49l7.16-9.58c-1.33.76-2.81,1.33-4.72,1.33-4.46,0-8.6-2.99-8.6-8.39s4.17-8.96,9.43-8.96,9.4,3.35,9.4,9.07ZM441.24,83.78c0-3.78-2.84-6.08-6.41-6.08s-6.41,2.41-6.41,6.12,2.84,6.05,6.37,6.05c3.71,0,6.44-2.3,6.44-6.08Z"/>
    <path class="cls-1" d="M465.9,83.92c0,4.39-2.66,7.85-9.18,16.52h-3.49l7.16-9.58c-1.33.76-2.81,1.33-4.72,1.33-4.46,0-8.6-2.99-8.6-8.39s4.17-8.96,9.43-8.96,9.39,3.35,9.39,9.07ZM462.91,83.78c0-3.78-2.84-6.08-6.41-6.08s-6.41,2.41-6.41,6.12,2.84,6.05,6.37,6.05c3.71,0,6.44-2.3,6.44-6.08Z"/>
    <path class="cls-1" d="M488.43,94.4h-3.71v6.05h-2.99v-6.05h-13.5v-2.81l12.02-16.34h4.46v16.34h3.71v2.81ZM481.74,91.59v-13.54h-.29l-9.9,13.5,10.19.04Z"/>
  </g>
  <g>
    <g>
      <path class="cls-2" d="M313.89,281.06c.48-.36.81-.62,1.16-.86,16.86-11.33,25-26.87,22.8-47.37-1.5-13.99-7.39-25.72-18.4-34.61-12.29-9.92-26.74-13.84-42.24-14.13-14.28-.26-43.94.02-44.48.08v149.13h11.28v-139.08l30.16-.15c7.71.06,15.3,1.02,22.6,3.66,23.15,8.36,31.67,28.38,28.99,47.91-1.82,13.22-9.43,22.71-20.85,29.29-1.81,1.05-3.71,1.94-5.59,2.92l36.94,54.46c.29.43.81,1.01,1.23,1.02,3.92.08,7.84.05,12.11.05l-35.71-52.32Z"/>
      <path class="cls-2" d="M148.19,181.9l-69.24,151.49c3.26,0,6.17-.11,9.08.04,1.67.09,2.47-.47,3.16-2l56.69-125.7,56.86,125.72c.32.71.93,1.81,1.44,1.83,3.71.16,7.42.09,11.34.09l-69.31-151.48Z"/>
      <path class="cls-2" d="M488.95,330.89l-43.55-72.52c-.81-1.35-.79-2.28,0-3.62l41.81-70.75c-3.73,0-7.07.08-10.4-.04-1.48-.05-2.25.48-3,1.74l-41.15,69.24c-.72,1.2-.73,2.05,0,3.25l44.13,73.41c.41.67,1.06,1.67,1.63,1.69,3.87.15,7.74.08,11.94.08-.6-1.05-1-1.78-1.42-2.49Z"/>
      <path class="cls-2" d="M417.59,253.95l-41.04-68.26c-.42-.69-1.25-1.57-1.91-1.6-3.74-.16-7.5-.07-11.62-.07l41.76,69.62c.86,1.42.85,2.39,0,3.81l-43.64,73.65c-.4.68-.78,1.38-1.29,2.3,3.62,0,6.82-.1,10.01.04,1.51.06,2.25-.54,2.97-1.76,14.87-24.85,29.78-49.69,44.71-74.51.7-1.16.82-2,.05-3.22Z"/>
      <path class="cls-2" d="M283.31,273.48c.22-.17.32-.3.44-.33.55-.15,1.1-.27,1.65-.4,10.44-2.44,19.19-7.38,24.71-16.95,8.97-15.55,4.96-44.13-24.04-50.37-5.29-1.14-10.54-1.41-15.85-1.41l-14.33.21c-.12,0-.23.14-.35.22v128.89h11.17v-65.66l43.91,64.06c.45.65,1.16,1.55,1.77,1.57,3.86.14,7.72.07,11.96.07l-41.05-59.91ZM266.78,265.74v-51.31c10.16-.44,20.19-.56,28.11,7.02,7.76,7.43,8.83,16.81,6.15,26.62-2.7,9.85-10.09,14.84-19.73,16.52-4.7.82-9.56.78-14.52,1.15Z"/>
      <path class="cls-2" d="M147.7,231.54l-29.18,64.46h58.16l-28.97-64.46ZM147.27,257.44l12.78,28.51h-25.57l12.78-28.51Z"/>
      <path class="cls-2" d="M424.59,265.62l-40.82,67.77c3.63,0,6.83-.08,10.02.03,1.46.05,2.25-.42,3-1.7l27.18-45.94,27.67,45.96c.41.69,1.25,1.55,1.92,1.58,3.74.15,7.48.07,11.65.07l-40.62-67.77Z"/>
      <path class="cls-2" d="M453.37,183.97c-1.57-.07-2.39.5-3.17,1.83l-23.96,40.32-24.37-40.33c-.41-.67-1.07-1.66-1.65-1.68-3.87-.15-7.74-.08-12.01-.08l37.43,62.45,37.44-62.47c-3.52,0-6.62.09-9.71-.04Z"/>
      <path class="cls-2" d="M193.24,332.75l-11.46-25.42c-.26-.55-1.28-1.07-1.95-1.07h-64.4c-.75.01-1.81.72-2.18,1.4l-11.64,25.74c3.45,0,6.5-.1,9.54.04,1.49.07,2.11-.53,2.66-1.79l6.12-13.59c.55-1.27,1.2-1.77,2.67-1.77h49.26c1.56,0,2.22.57,2.79,1.88l6.28,13.75c.28.59.99,1.37,1.53,1.39,3.59.12,7.18.07,10.78.07,0-.37.04-.53,0-.64Z"/>
    </g>
    <g>
      <g>
        <path class="cls-1" d="M122.36,428.83h5.04c4.11,0,1.79-2.48,4.35-2.48h.68v6.65h-.88c-2.39,0-.16-2.55-4.15-2.55h-5.04v9.13c0,2.98,2.19,1.01,2.19,2.59v.65h-8.5v-.65c0-1.58,2.19.4,2.19-2.59v-18.79c0-2.98-2.19-1-2.19-2.59v-.65h16.36c.84,0,1.92-.14,2.68-.54v6.4h-1c-2.63,0-.16-4.24-5.87-4.24h-5.87v9.67Z"/>
        <path class="cls-1" d="M164.92,442.53v-.65c0-1.58,2.19.39,2.19-2.59v-18.79c0-2.98-2.19-1.01-2.19-2.59v-.65h8.5v.65c0,1.58-2.19-.39-2.19,2.59v18.79c0,2.98,2.19,1.01,2.19,2.59v.65h-8.5Z"/>
        <path class="cls-1" d="M184.74,439.3c0,2.98,2.22,1.01,2.22,2.59v.65h-8.64v-.65c0-1.58,2.26.39,2.26-2.59v-18.79c0-2.98-2.22-1.01-2.22-2.59v-.65h12.76c2.99,0,8.6,1.26,8.6,6.11,0,4.24-4.28,5.81-8.52,5.89v.07c1.94.18,2.62,1.59,3.55,2.95l4.68,6.79c2.18,3.16,3.47,1.19,3.47,2.8v.65h-6.06l-5.25-7.91c-2.34-3.56-2.83-4.89-5.61-4.89h-1.25v9.57ZM188.77,428.22c3.15,0,6.46-.71,6.46-4.66,0-3.27-2.75-4.78-5.33-4.78h-5.17v9.44h4.04Z"/>
        <path class="cls-1" d="M212.22,428.83h5.04c4.11,0,1.79-2.48,4.35-2.48h.68v6.65h-.88c-2.39,0-.16-2.55-4.15-2.55h-5.04v9.13c0,2.98,2.19,1.01,2.19,2.59v.65h-8.5v-.65c0-1.58,2.19.4,2.19-2.59v-18.79c0-2.98-2.19-1-2.19-2.59v-.65h16.36c.84,0,1.92-.14,2.68-.54v6.4h-1c-2.63,0-.16-4.24-5.87-4.24h-5.86v9.67Z"/>
        <path class="cls-1" d="M261.72,438.29c-.32.46-.96,1.22-.96,1.8,0,1.4,2.23.54,2.23,1.79v.65h-7.58v-.65c0-1.4,1.04.36,3.39-2.84l6.9-9.27-7.06-9.63c-1.8-2.44-2.88-.75-2.88-2.23v-.65h9.1v.65c0,1.29-1.71.47-1.71,1.55,0,.47.56,1.04.84,1.4l4.51,6.07,3.43-4.6c.44-.61,1.56-2.01,1.56-2.73,0-1.51-1.95-.25-1.95-1.69v-.65h7.7v.65c0,1.55-1.43-.18-4.19,3.41l-5.43,7.04,8.1,11.1c1.76,2.41,2.88,1.08,2.88,2.41v.65h-9.46v-.65c0-1.29,2.16-.39,2.16-1.58,0-.43-.52-.97-.76-1.3l-5.66-7.61-5.15,6.9Z"/>
        <path class="cls-1" d="M147.21,418.38h-2.83v-1.53h6.09c.2,0,9.38,22.56,9.38,22.56,1.52,3.35,2.75,1.23,2.75,2.88v.65h-8.94v-.65c0-1.37,2.07-.33,2.07-1.73,0-.57-.22-1.47-.46-1.97l-2.69-6.65-8.02-.05-2.8,6.34c-.24.54-.68,1.51-.68,2.08,0,1.62,2.03.54,2.03,1.98v.65h-7.1v-.65c0-1.54,1.38.33,3.22-3.7l7.97-20.21ZM148.86,421.57l-3.5,8.6,6.75.03-3.25-8.63Z"/>
        <path class="cls-1" d="M237.5,418.38h-2.83v-1.53h6.09c.2,0,9.38,22.56,9.38,22.56,1.52,3.35,2.75,1.23,2.75,2.88v.65h-8.94v-.65c0-1.37,2.08-.33,2.08-1.73,0-.57-.22-1.47-.46-1.97l-2.69-6.65-8.02-.05-2.8,6.34c-.24.54-.68,1.51-.68,2.08,0,1.62,2.04.54,2.04,1.98v.65h-7.1v-.65c0-1.54,1.38.33,3.22-3.7l7.97-20.21ZM239.15,421.57l-3.49,8.6,6.75.03-3.26-8.63Z"/>
      </g>
      <path class="cls-1" d="M113.7,405.51c-.47,0-.86-.38-.86-.86h0c0-.47.39-.86.86-.86h166.14c.47,0,.86.39.86.86h0c0,.48-.39.86-.86.86H113.7Z"/>
      <path class="cls-1" d="M113.7,455.21c-.47,0-.86-.39-.86-.86h0c0-.48.39-.86.86-.86h166.14c.47,0,.86.38.86.86h0c0,.47-.39.86-.86.86H113.7Z"/>
    </g>
    <g>
      <path class="cls-1" d="M82.01,442.79h-3.6l9.44-24.94h3.56l9.44,24.94h-3.6l-2.35-6.45h-10.55l-2.35,6.45ZM93.98,433.52l-4.35-12.29-4.35,12.29h8.69Z"/>
      <path class="cls-1" d="M322.63,434.52c-.46,3.56-2.53,9.02-10.55,9.02-7.41,0-11.87-4.81-11.87-12.79,0-13.26,9.66-13.65,11.76-13.65,7.94,0,9.94,4.63,10.34,8.45h-3.35c-.18-1.82-1.28-5.63-6.99-5.63-6.24,0-8.2,5.28-8.2,10.69,0,5.81,3.17,10.12,8.45,10.12,3.99,0,6.88-2.64,7.06-6.2h3.35Z"/>
      <path class="cls-1" d="M340.38,417.09c5.52,0,11.9,3.07,11.9,13.22,0,13.04-10.37,13.22-11.9,13.22-1.64,0-11.9-.18-11.9-13.22,0-8.73,4.95-13.22,11.9-13.22ZM340.38,440.72c1.71,0,8.34-.36,8.34-10.41,0-5.88-2.6-10.41-8.34-10.41-7.63,0-8.34,7.7-8.34,10.41,0,4.03,1.21,10.41,8.34,10.41Z"/>
      <path class="cls-1" d="M363.15,421.84h-.07l.07.96v19.99h-3.35v-24.94h5.02l7.81,20.53,7.8-20.53h5.02v24.94h-3.35v-19.99l.07-.96h-.11l-8.09,20.95h-2.71l-8.13-20.95Z"/>
      <path class="cls-1" d="M404.57,417.84c5.1,0,8.45,1.99,8.45,7.16,0,4.67-2.32,7.84-8.77,7.84h-6.48v9.94h-3.35v-24.94h10.15ZM397.76,430.03h6.13c3.99,0,5.7-1.67,5.7-4.95,0-3.1-1.86-4.42-5.7-4.42h-6.13v9.37Z"/>
      <path class="cls-1" d="M420.5,442.79h-3.6l9.44-24.94h3.56l9.44,24.94h-3.6l-2.35-6.45h-10.55l-2.35,6.45ZM432.47,433.52l-4.35-12.29-4.35,12.29h8.69Z"/>
      <path class="cls-1" d="M448.48,442.79h-3.35v-24.94h3.71l13.26,19.78v-19.78h3.35v24.94h-3.67l-13.29-19.78v19.78Z"/>
      <path class="cls-1" d="M486.36,417.84h3.99l-9.23,14.54v10.41h-3.35v-10.41l-9.26-14.54h3.99l6.95,11.54,6.91-11.54Z"/>
    </g>
  </g>
</svg>