<svg xmlns="http://www.w3.org/2000/svg" width="230.551" height="61.767" viewBox="0 0 61 16.342" version="1.1" id="svg8"><defs id="defs2"><clipPath id="clipPath3729" clipPathUnits="userSpaceOnUse"><path id="path3727" d="M24.158 26.081h181.418v47.622H24.158z"/></clipPath></defs><g id="layer1" transform="translate(-8.81 -8.37)"><g transform="matrix(.35278 0 0 -.35278 .287 34.371)" id="g3721" fill="#011970"><g id="g3723" fill="#011970"><g clip-path="url(#clipPath3729)" id="g3725" fill="#011970"><g transform="translate(88.356 52.346)" id="g3731"><path id="path3733" d="M0 0v-3.438h-6.365c.232-1.82.772-3.156 1.624-4.006.852-.853 1.885-1.28 3.093-1.28 1.24 0 2.268.37 3.082 1.113.811.744 1.308 1.814 1.492 3.207l4.12-1.28c-.468-2.036-1.42-3.635-2.856-4.805-1.43-1.166-3.291-1.752-5.579-1.757-2.347.005-4.194.558-5.549 1.672-1.354 1.113-2.32 2.394-2.903 3.849-.582 1.454-.87 3.092-.87 4.907 0 3.191.832 5.762 2.504 7.718 1.672 1.951 3.973 2.932 6.899 2.937 2.264-.005 4.102-.545 5.523-1.62C5.63 6.142 6.554 4.684 6.99 2.841l-4.064-.938c-.293 1.076-.838 1.909-1.634 2.496-.791.592-1.695.885-2.708.885-1.454 0-2.605-.502-3.447-1.506C-5.706 2.775-6.208 1.516-6.365 0zm66.012 8.467h4.118v-20.343h-4.118zm7.182-20.343V8.467h4.12V.455h8.013v8.012h4.119v-20.343h-4.119v8.892h-8.013v-8.892zm31.542 7.5l3.98-1.222c-.612-2.239-1.631-3.902-3.051-4.992-1.42-1.084-3.22-1.629-5.403-1.629-2.703 0-4.925.925-6.666 2.771-1.74 1.846-2.61 4.372-2.61 7.578 0 3.386.875 6.017 2.623 7.892 1.747 1.876 4.048 2.815 6.9 2.815 2.492 0 4.512-.739 6.066-2.212.928-.871 1.62-2.121 2.084-3.756l-4.064-.966c-.241 1.052-.742 1.886-1.506 2.496-.768.611-1.696.914-2.783.914-1.512 0-2.739-.541-3.676-1.624-.942-1.08-1.411-2.833-1.411-5.256 0-2.568.465-4.401 1.388-5.49.927-1.093 2.131-1.638 3.613-1.638 1.093 0 2.037.346 2.822 1.042.787.697 1.354 1.786 1.694 3.277M8.935 8.467h8.135c1.616 0 2.814-.067 3.604-.199a5.423 5.423 0 002.127-.837 5.258 5.258 0 001.562-1.697c.416-.706.625-1.501.625-2.377 0-.947-.255-1.823-.766-2.615a4.749 4.749 0 00-2.085-1.783c1.236-.365 2.183-.98 2.851-1.853.663-.872.994-1.895.994-3.074 0-.928-.213-1.827-.644-2.704-.43-.876-1.018-1.575-1.766-2.101-.744-.521-1.662-.842-2.756-.966-.681-.072-2.335-.118-4.954-.137H8.935zm4.12-3.381V.396h2.69c1.596 0 2.59.026 2.978.073.702.081 1.256.322 1.658.723.402.404.601.93.601 1.583 0 .63-.175 1.136-.521 1.53-.345.392-.862.63-1.544.71-.407.047-1.576.071-3.504.071zm0-8.07v-5.455h3.807c1.478 0 2.421.043 2.819.123.61.115 1.108.383 1.491.815.384.437.578 1.008.578 1.733 0 .616-.147 1.131-.445 1.558-.294.426-.725.738-1.284.934-.558.192-1.776.292-3.646.292zm14.693-8.892V8.467h6.589c2.494 0 4.119-.101 4.877-.303 1.164-.309 2.14-.971 2.926-1.993.787-1.024 1.179-2.346 1.179-3.963 0-1.251-.228-2.298-.676-3.15-.455-.852-1.03-1.52-1.724-2.008-.697-.484-1.407-.806-2.127-.962-.98-.193-2.396-.293-4.252-.293h-2.672v-7.671zm4.12 16.904V-.768h2.24c1.616 0 2.69.11 3.235.323.544.214.97.545 1.279 1.004.308.454.463.98.463 1.587 0 .743-.217 1.354-.647 1.836a2.843 2.843 0 01-1.648.91c-.49.089-1.47.136-2.946.136zm12.469-6.856c0 2.073.312 3.816.933 5.228a9.513 9.513 0 001.893 2.793c.801.825 1.678 1.436 2.629 1.837 1.27.536 2.732.807 4.391.807 3.002 0 5.398-.934 7.202-2.794 1.799-1.866 2.698-4.457 2.698-7.776 0-3.292-.895-5.869-2.679-7.725-1.786-1.86-4.177-2.788-7.166-2.788-3.026 0-5.435.923-7.22 2.774-1.787 1.847-2.681 4.396-2.681 7.644m4.233.138c0-2.306.535-4.054 1.601-5.248 1.065-1.189 2.42-1.786 4.058-1.786 1.643 0 2.989.591 4.044 1.773 1.052 1.183 1.578 2.955 1.578 5.317 0 2.334-.512 4.077-1.539 5.224-1.024 1.15-2.382 1.723-4.083 1.723-1.695 0-3.064-.583-4.101-1.743C49.091 2.405 48.57.653 48.57-1.69" fill="#011970" fill-opacity="1" fill-rule="nonzero" stroke="none"/></g><g transform="translate(45.94 27.415)" id="g3735"><path id="path3737" d="M0 0v13.935h22.641l-.344-.762-.369-.749-.406-.738-.428-.711-.443-.7-.478-.675-.504-.674-.517-.639-.539-.627-.564-.601-.589-.59-.603-.565-.626-.539-.65-.529-.663-.49-.677-.479-.699-.443-.712-.43-.737-.404-.749-.369-.76-.358-.774-.316-.798-.297-.798-.258L7.402.76 6.568.553 5.733.367 4.887.221 4.026.109 3.154.023l-.883-.048-.884-.012H1.03l-.343.012-.343.011zm-17.398 14.88h1.989l.614 1.901.602-1.901h2.001l-1.61-1.167.614-1.902-1.607 1.166-1.609-1.166.601 1.902zm-2.308 9.344h1.938l.59 1.841.603-1.841h1.927l-1.559-1.143.589-1.842-1.56 1.143-1.558-1.143.589 1.842zm2.7 9.797h1.965l.576 2.063.64-2.063h1.989l-1.608-1.178.613-1.879-1.608 1.167-1.584-1.167.601 1.879zm7.035 6.715h1.929l.59 1.843.588-1.843h1.939l-1.57-1.14.6-1.83-1.557 1.13-1.561-1.13.602 1.83zm-.11-32.511h1.965l.614 1.89.601-1.89h1.964L-6.521 7.07l.603-1.888-1.584 1.164L-9.1 5.182l.603 1.888zm33.79 8.692L0 16.931l.012.036L0 30.608h23.304l.146-.441.148-.443.123-.454.123-.456.109-.454.099-.465.098-.467.086-.466.074-.467.06-.479.051-.466.049-.491.037-.479.023-.478.014-.493.012-.49-.012-.405v-.394l-.025-.406-.025-.392-.024-.394-.037-.393-.049-.392-.049-.393-.05-.382-.073-.379-.062-.393-.074-.38-.086-.369-.085-.381-.098-.368zm-1.646 16.626H0v12.695l.344.025.343.011.343.014h.357l.846-.014.824-.048.835-.074.809-.097.811-.136.799-.16.797-.184.775-.221.761-.233.76-.27.749-.295.726-.306.723-.346.701-.367.686-.381.676-.405.663-.43.651-.455.625-.478.615-.492.59-.515.577-.54.563-.552.541-.565.517-.59.503-.613.477-.615.455-.65.443-.651.417-.675.392-.689zM-2.665 45.931V.318l-1.007.198-.994.244-.971.295-.957.32-.932.381-.921.404-.898.442-.872.49-.858.515-.822.555-.799.59-.775.625-.748.65-.724.688-.688.713-.65.748-.626.762-.603.796-.552.825-.529.845-.489.872-.455.897-.405.922-.38.931-.332.957-.295.971-.245.994-.209 1.008-.171 1.019-.113 1.032-.073 1.056-.024 1.056.024 1.056.073 1.054.113 1.033.171 1.032.209 1.006.245.981.295.984.332.945.38.944.405.909.455.897.489.872.529.847.552.823.603.797.626.774.65.736.688.725.724.676.748.662.775.613.799.591.822.565.858.515.872.48.898.453.921.406.932.367.957.331.971.295.994.246z" fill="#011970" fill-opacity="1" fill-rule="evenodd" stroke="none"/></g><g transform="translate(83.752 27.888)" id="g3739"><path id="path3741" d="M0 0c-.318-.164-1.022-.33-1.912-.33-2.352 0-3.78 1.473-3.78 3.726 0 2.44 1.692 3.913 3.956 3.913.89 0 1.527-.186 1.802-.33L-.23 5.902a3.584 3.584 0 01-1.451.286c-1.507 0-2.594-.944-2.594-2.725 0-1.627.957-2.672 2.583-2.672.549 0 1.121.109 1.473.275z" fill="#011970" fill-opacity="1" fill-rule="nonzero" stroke="none"/></g><g transform="translate(91.414 33.944)" id="g3743"><path id="path3745" d="M0 0h-2.109v1.131h5.592V0h-2.13v-6.275H0z" fill="#011970" fill-opacity="1" fill-rule="nonzero" stroke="none"/></g><g transform="translate(101.911 31.526)" id="g3747"><path id="path3749" d="M0 0c.165-.045.385-.055.659-.055 1.011 0 1.627.494 1.627 1.362 0 .824-.572 1.265-1.505 1.265A3.7 3.7 0 010 2.504zm-1.341 3.451c.485.088 1.154.154 2.067.154.988 0 1.714-.209 2.186-.605.441-.361.726-.945.726-1.639C3.638.658 3.418.076 3-.318c-.538-.539-1.385-.791-2.341-.791-.253 0-.483.009-.659.043v-2.791h-1.341z" fill="#011970" fill-opacity="1" fill-rule="nonzero" stroke="none"/></g><g transform="translate(114.342 30.79)" id="g3751"><path id="path3753" d="M0 0l-.582 1.824c-.143.451-.265.957-.373 1.385h-.023c-.11-.428-.219-.945-.352-1.385L-1.901 0zm-2.121-1.023l-.637-2.098h-1.395l2.374 7.406h1.724l2.408-7.406H.901l-.67 2.098z" fill="#011970" fill-opacity="1" fill-rule="nonzero" stroke="none"/></g><g transform="translate(126.499 27.669)" id="g3755"><path id="path3757" d="M0 0l-.803 1.471c-.318.572-.527.968-.735 1.396h-.033a17.344 17.344 0 00-.671-1.396L-2.979 0h-1.548l2.197 3.746-2.109 3.66h1.548l.802-1.527c.243-.461.419-.824.616-1.242h.023c.197.463.35.791.582 1.242l.791 1.527h1.55L-.693 3.791 1.561 0z" fill="#011970" fill-opacity="1" fill-rule="nonzero" stroke="none"/></g><g transform="translate(134.765 35.075)" id="g3759"><path id="path3761" d="M0 0l1.254-2.857c.197-.483.351-.924.527-1.362h.033c.11.34.241.813.417 1.395L3.198 0h1.429L3.166-3.691c-.429-1.079-.902-2.2-1.429-2.891-.483-.606-1.065-.945-1.846-.945-.32 0-.516.033-.693.097l.111 1.09c.109-.035.253-.045.461-.045.626 0 1.023.528 1.209.946.066.154.043.253-.033.396L-1.527 0z" fill="#011970" fill-opacity="1" fill-rule="nonzero" stroke="none"/></g><g transform="translate(146.263 28.648)" id="g3763"><path id="path3765" d="M0 0a5.76 5.76 0 01.715-.033c.867 0 1.638.328 1.638 1.242 0 .855-.749 1.209-1.683 1.209H0zm0 3.406h.692c.935 0 1.461.44 1.461 1.067 0 .693-.526 1.009-1.383 1.009-.397 0-.627-.021-.77-.054zM-1.34 6.33c.428.088 1.209.152 1.967.152 1 0 1.615-.121 2.121-.472.461-.274.769-.756.769-1.383 0-.682-.429-1.309-1.23-1.606V3c.779-.197 1.494-.814 1.494-1.836 0-.658-.285-1.176-.715-1.527-.527-.463-1.396-.694-2.748-.694-.747 0-1.318.055-1.658.1z" fill="#011970" fill-opacity="1" fill-rule="nonzero" stroke="none"/></g><g transform="translate(159.661 30.79)" id="g3767"><path id="path3769" d="M0 0l-.583 1.824c-.142.451-.263.957-.373 1.385h-.023c-.109-.428-.219-.945-.351-1.385L-1.901 0zm-2.121-1.023l-.637-2.098h-1.396l2.374 7.406h1.725l2.409-7.406H.9L.23-1.023z" fill="#011970" fill-opacity="1" fill-rule="nonzero" stroke="none"/></g><g transform="translate(169.203 35.075)" id="g3771"><path id="path3773" d="M0 0v-2.967h3.133V0h1.35v-7.406h-1.35v3.263H0v-3.263h-1.353V0z" fill="#011970" fill-opacity="1" fill-rule="nonzero" stroke="none"/></g><g transform="translate(181.392 35.075)" id="g3775"><path id="path3777" d="M0 0v-2.967h3.133V0h1.352v-7.406H3.133v3.263H0v-3.263h-1.351V0z" fill="#011970" fill-opacity="1" fill-rule="nonzero" stroke="none"/></g><g transform="translate(195.65 34.032)" id="g3779"><path id="path3781" d="M0 0a3.612 3.612 0 01-.793.076c-.812 0-1.494-.318-1.494-1.197 0-.781.691-1.209 1.582-1.209.265 0 .529 0 .705.021zm-4.078-6.363c.132.218.242.482.34.758.308.845.494 1.791 1.078 2.363.164.164.385.297.615.373v.033c-.867.154-1.594.77-1.594 1.813 0 .669.285 1.199.727 1.55.515.407 1.34.571 2.285.571.725 0 1.451-.065 1.967-.153v-7.308H0v3.043h-.551c-.385 0-.68-.098-.912-.319-.484-.484-.682-1.482-.922-2.142a3.141 3.141 0 00-.254-.582z" fill="#011970" fill-opacity="1" fill-rule="nonzero" stroke="none"/></g></g></g></g></g></svg>