<?xml version="1.0" encoding="UTF-8"?>
<svg xmlns="http://www.w3.org/2000/svg" width="224" height="56" viewBox="0 0 224 56" fill="none">
  <g clip-path="url(#clip0_2_2)">
    <path fill-rule="evenodd" clip-rule="evenodd" d="M35.1573 0V36.5822H223.307V0H35.1573ZM62.6312 11.7607H46.8303V16.2678H60.108V21.1737H46.8303V25.6829H62.6312V30.5889H41.9244V6.85477H62.6312V11.7607ZM85.3591 30.6897L79.4535 22.9515L73.548 30.6897H66.6011L75.9812 18.4007L67.1908 6.88327H74.1354L79.4535 13.8455L84.7694 6.87889H91.7163L82.9259 18.3963L92.3038 30.6854L85.3591 30.6897ZM115.83 14.8867C115.829 17.0264 114.979 19.0783 113.465 20.5911C111.952 22.1039 109.9 22.9537 107.76 22.9537H104.266C104.198 22.9537 104.135 22.9537 104.069 22.9537H101.563V30.5955H96.197V18.1661H107.752C108.569 18.1445 109.346 17.8047 109.916 17.2189C110.486 16.6332 110.806 15.8479 110.806 15.0303C110.806 14.2127 110.486 13.4274 109.916 12.8417C109.346 12.2559 108.569 11.9161 107.752 11.8945H96.197V6.81751H107.763L108.839 6.88985C110.775 7.15043 112.551 8.10458 113.837 9.57522C115.123 11.0459 115.832 12.9331 115.832 14.8867H115.83ZM133.586 30.6897L127.685 22.9537H127.564C127.498 22.9537 127.435 22.9537 127.369 22.9537H124.868V30.5955H119.501V18.1661H131.056C131.873 18.1445 132.65 17.8047 133.22 17.2189C133.791 16.6332 134.11 15.8479 134.11 15.0303C134.11 14.2127 133.791 13.4274 133.22 12.8417C132.65 12.2559 131.873 11.9161 131.056 11.8945H119.501V6.81751H131.071L132.146 6.88985C134.082 7.15043 135.858 8.10458 137.144 9.57522C138.43 11.0459 139.138 12.9331 139.138 14.8867C139.139 16.4821 138.666 18.0419 137.78 19.3686C136.894 20.6953 135.634 21.7293 134.16 22.3399L140.533 30.6897H133.586ZM165.911 11.7607H150.106V16.2678H163.386V21.1737H150.106V25.6829H165.907V30.5889H145.202V6.85477H165.907L165.911 11.7607ZM192.784 23.2869C192.784 25.223 192.015 27.0797 190.646 28.4487C189.277 29.8176 187.42 30.5867 185.484 30.5867H170.808V25.5448H185.033C186.394 25.5448 187.499 24.6439 187.499 23.5346C187.499 22.4254 186.725 21.9673 185.033 21.5245C185.033 21.5245 183.446 21.1759 181.859 20.8208C180.795 20.584 177.667 19.9439 176.977 19.7247C176.1 19.4463 174.07 18.7953 172.726 16.864C171.973 15.7858 171.566 14.5033 171.56 13.1878C171.56 8.58436 174.828 5.88804 178.858 5.88804H191.401V10.9299H179.298C177.935 10.9299 176.832 11.8309 176.832 12.9401C176.832 13.8718 177.608 14.6543 178.665 14.8823L185.638 16.3774C190.868 17.1293 192.771 20.0667 192.771 23.2891L192.784 23.2869ZM217.774 23.2869C217.774 25.2226 217.006 27.079 215.637 28.4479C214.269 29.8168 212.412 30.5861 210.477 30.5867H195.803V25.5448H210.027C211.391 25.5448 212.494 24.6439 212.494 23.5346C212.494 22.4254 211.722 21.9673 210.027 21.5245C210.027 21.5245 208.44 21.1759 206.855 20.8208C205.792 20.584 202.662 19.9439 201.971 19.7247C201.095 19.4463 199.065 18.7953 197.721 16.864C196.966 15.784 196.559 14.499 196.555 13.1812C196.555 8.57778 199.823 5.88147 203.854 5.88147H216.398V10.9234H204.288C202.927 10.9234 201.822 11.8243 201.822 12.9335C201.822 13.8652 202.6 14.6478 203.655 14.8758L210.63 16.3708C215.858 17.1227 217.761 20.0601 217.761 23.2825L217.774 23.2869Z" fill="#1E3258"></path>
    <path d="M45.32 55.3446C44.6821 55.6624 43.4106 55.9803 41.7797 55.9803C38.0027 55.9803 35.1573 53.5952 35.1573 49.2C35.1573 45.0043 38.0071 42.1611 42.1567 42.1611C43.8271 42.1611 44.8816 42.5184 45.3397 42.7574L44.921 44.1691C44.0723 43.7859 43.1492 43.5957 42.2181 43.6123C39.0746 43.6123 36.9877 45.6203 36.9877 49.1408C36.9877 52.429 38.8773 54.5291 42.137 54.5291C43.1068 54.5433 44.0687 54.3536 44.9605 53.9723L45.32 55.3446Z" fill="#666666"></path>
    <path d="M57.2868 43.8512H53.2116V42.3803H63.1332V43.8512H59.0383V55.783H57.2846L57.2868 43.8512Z" fill="#666666"></path>
    <path d="M71.1848 42.5382C72.2858 42.361 73.3996 42.2752 74.5147 42.2817C76.2245 42.2817 77.4784 42.6785 78.272 43.3953C79.0085 44.031 79.447 45.0043 79.447 46.199C79.447 47.3937 79.0875 48.3648 78.4123 49.0619C77.4982 50.0352 76.0009 50.5328 74.3152 50.5328C73.8482 50.5476 73.381 50.5078 72.9232 50.4145V55.783H71.1936L71.1848 42.5382ZM72.9144 49.0027C73.3841 49.1075 73.8649 49.1538 74.3459 49.1408C76.435 49.1408 77.7064 48.1281 77.7064 46.2779C77.7064 44.5089 76.4547 43.6474 74.5454 43.6474C73.9983 43.6324 73.4512 43.6787 72.9144 43.7855V49.0027Z" fill="#666666"></path>
    <path d="M88.8205 51.5675L87.4307 55.783H85.6397L90.1928 42.3803H92.2818L96.8546 55.783H95.0045L93.573 51.5675H88.8205ZM93.2047 50.215L91.8895 46.3568C91.5913 45.48 91.394 44.6864 91.1946 43.9104H91.1748C90.9753 44.7062 90.7561 45.5216 90.4975 46.3371L89.1822 50.215H93.2047Z" fill="#666666"></path>
    <path d="M112.721 55.783L111.011 52.8192C110.314 51.6859 109.878 50.9493 109.459 50.1755H109.42C109.043 50.9493 108.664 51.6662 107.969 52.839L106.357 55.783H104.369L108.466 49.0027L104.52 42.3803H106.528L108.298 45.5216C108.795 46.3985 109.174 47.0737 109.532 47.7883H109.591C109.968 46.9926 110.305 46.3766 110.803 45.5216L112.634 42.3803H114.631L110.553 48.9019L114.729 55.783H112.721Z" fill="#666666"></path>
    <path d="M123.993 42.3803L126.659 48.0799C126.996 48.8756 127.316 49.6516 127.632 50.4473H127.671C127.91 49.7503 128.169 48.9742 128.507 48.0207L130.596 42.3738H132.424L129.622 49.2526C128.886 51.0436 128.051 53.0911 127.117 54.3449C126.24 55.441 125.267 55.9934 124.074 55.9934C123.745 56.0075 123.415 55.9676 123.099 55.8751L123.278 54.4633C123.487 54.5108 123.701 54.5307 123.914 54.5225C125.306 54.5028 126.122 53.1722 126.545 52.2164C126.685 51.9183 126.646 51.7188 126.486 51.4009L122.031 42.3738L123.993 42.3803Z" fill="#666666"></path>
    <path d="M140.417 42.5623C141.459 42.3693 142.517 42.2761 143.578 42.2839C145.309 42.2839 146.427 42.582 147.256 43.2572C147.621 43.5323 147.913 43.8923 148.108 44.306C148.302 44.7197 148.393 45.1746 148.372 45.6313C148.372 46.9246 147.515 48.0579 146.103 48.5753V48.6147C147.376 48.9326 148.867 49.987 148.867 51.9753C148.873 52.4754 148.776 52.9713 148.58 53.4316C148.385 53.892 148.096 54.3068 147.732 54.6497C146.798 55.5046 145.285 55.9014 143.1 55.9014C142.202 55.9079 141.305 55.8552 140.414 55.7435L140.417 42.5623ZM142.146 48.0426H143.718C145.546 48.0426 146.62 47.089 146.62 45.7957C146.62 44.2261 145.428 43.6035 143.678 43.6035C143.164 43.5906 142.65 43.631 142.144 43.7241L142.146 48.0426ZM142.146 54.4655C142.627 54.5295 143.112 54.5559 143.597 54.5444C145.388 54.5444 147.039 53.8868 147.039 51.9402C147.039 50.112 145.467 49.3557 143.578 49.3557H142.146V54.4655Z" fill="#666666"></path>
    <path d="M159.922 51.5675L158.53 55.783H156.741L161.294 42.3803H163.381L167.956 55.783H166.106L164.675 51.5675H159.922ZM164.306 50.215L162.991 46.3568C162.693 45.48 162.493 44.6864 162.296 43.9104H162.254C162.057 44.7062 161.838 45.5216 161.579 46.3371L160.264 50.215H164.306Z" fill="#666666"></path>
    <path d="M178.213 42.3803V47.9878H184.697V42.3803H186.451V55.783H184.697V49.4982H178.213V55.783H176.484V42.3803H178.213Z" fill="#666666"></path>
    <path d="M197.738 42.3803V47.9878H204.22V42.3803H205.974V55.783H204.22V49.4982H197.738V55.783H196.009V42.3803H197.738Z" fill="#666666"></path>
    <path d="M214.32 55.783C214.53 55.393 214.71 54.9869 214.857 54.5685C215.433 53.0341 215.793 51.1686 216.887 50.0747C217.197 49.7621 217.579 49.5303 218 49.3995V49.3403C216.349 49.0619 215.036 47.8672 215.036 46.039C215.022 45.5211 215.125 45.0067 215.339 44.5347C215.552 44.0626 215.87 43.6453 216.268 43.3142C217.104 42.639 218.417 42.2817 220.107 42.2817C221.18 42.2736 222.252 42.3668 223.307 42.5601V55.783H221.578V49.976H220.306C219.471 49.976 218.855 50.1558 218.377 50.6337C217.463 51.5697 217.084 53.5382 216.608 54.8097C216.483 55.1437 216.336 55.4696 216.17 55.7852L214.32 55.783ZM221.578 43.7723C221.041 43.6641 220.494 43.6104 219.947 43.6123C218.237 43.6123 216.786 44.2699 216.786 46.1179C216.786 47.7291 218.217 48.663 220.107 48.663C220.683 48.663 221.24 48.663 221.578 48.6432V43.7723Z" fill="#666666"></path>
    <path d="M15.9367 15.7307C13.5141 18.1562 11.8647 21.2453 11.1971 24.6079C10.5295 27.9704 10.8736 31.4554 12.1859 34.6224C13.4982 37.7895 15.7199 40.4964 18.5701 42.4013C21.4204 44.3061 24.7713 45.3233 28.1995 45.3244V55.9715H27.9803C24.2837 56.0042 20.6173 55.3044 17.1927 53.9124C13.768 52.5205 10.6531 50.4639 8.02755 47.8615C5.40204 45.2592 3.31802 42.1625 1.8958 38.7503C0.47358 35.3382 -0.258667 31.6781 -0.258667 27.9814C-0.258667 24.2847 0.47358 20.6246 1.8958 17.2124C3.31802 13.8002 5.40204 10.7036 8.02755 8.10119C10.6531 5.49882 13.768 3.44228 17.1927 2.05031C20.6173 0.658346 24.2837 -0.0414825 27.9803 -0.00876865H28.1995V10.6406C25.9209 10.6391 23.6645 11.088 21.56 11.9616C19.4555 12.8351 17.5445 14.116 15.9367 15.7307Z" fill="#1E3258"></path>
    <path d="M17.765 17.4208H17.7628C11.9988 17.4208 7.32608 22.0935 7.32608 27.8575V27.8597C7.32608 33.6237 11.9988 38.2964 17.7628 38.2964H17.765C23.529 38.2964 28.2017 33.6237 28.2017 27.8597V27.8575C28.2017 22.0935 23.529 17.4208 17.765 17.4208Z" fill="#1E3258"></path>
  </g>
  <defs>
    <clipPath id="clip0_2_2">
      <rect width="223.309" height="56" fill="white"></rect>
    </clipPath>
  </defs>
</svg>
