<?xml version="1.0" encoding="utf-8"?>
<!-- Generator: Adobe Illustrator 15.0.0, SVG Export Plug-In . SVG Version: 6.00 Build 0)  -->
<!DOCTYPE svg PUBLIC "-//W3C//DTD SVG 1.1//EN" "http://www.w3.org/Graphics/SVG/1.1/DTD/svg11.dtd" [
	<!ENTITY ns_extend "http://ns.adobe.com/Extensibility/1.0/">
	<!ENTITY ns_ai "http://ns.adobe.com/AdobeIllustrator/10.0/">
	<!ENTITY ns_graphs "http://ns.adobe.com/Graphs/1.0/">
	<!ENTITY ns_vars "http://ns.adobe.com/Variables/1.0/">
	<!ENTITY ns_imrep "http://ns.adobe.com/ImageReplacement/1.0/">
	<!ENTITY ns_sfw "http://ns.adobe.com/SaveForWeb/1.0/">
	<!ENTITY ns_custom "http://ns.adobe.com/GenericCustomNamespace/1.0/">
	<!ENTITY ns_adobe_xpath "http://ns.adobe.com/XPath/1.0/">
]>
<svg version="1.1" id="Layer_1" xmlns:x="&ns_extend;" xmlns:i="&ns_ai;" xmlns:graph="&ns_graphs;"
	 xmlns="http://www.w3.org/2000/svg" xmlns:xlink="http://www.w3.org/1999/xlink" x="0px" y="0px" width="259px" height="115px"
	 viewBox="92 0 259 115" enable-background="new 92 0 259 115" xml:space="preserve">
<metadata>
	<sfw  xmlns="&ns_sfw;">
		<slices></slices>
		<sliceSourceBounds  height="73.918" width="250" x="287" y="263.531" bottomLeftOrigin="true"></sliceSourceBounds>
	</sfw>
</metadata>
<g>
	<path fill="#0D3A75" d="M131.112,20.834l0.687,14.432h-4.407l-1.777-10.598l-9.427-0.492v31.208l8.444,0.598v3.049h-21.592v-3.049
		l5.592-0.598V24.763l-5.498-0.774v-3.155H131.112z M147.698,20.645h7.859l11.882,34.74l2.935,0.491v3.043h-15.12v-3.043
		l3.835-0.491l-1.964-6.668H143.77l-1.961,6.777l4.134,0.488v3.049H132.89l-0.114-3.049l3.05-0.488L147.698,20.645z M151.231,29.372
		l-0.877-4.024l-0.977,4.024l-4.625,15.811h11.298L151.231,29.372z M177.45,24.668l-3.839-0.679v-3.155h7.761
		c0.689,0,1.859,0,3.333-0.095c1.966-0.094,3.821-0.189,5.402-0.189c3.52,0,6.384,0.491,8.432,1.375
		c2.071,0.874,3.542,2.064,4.422,3.726c0.891,1.568,1.384,3.627,1.384,6.178c0,4.326-1.384,7.67-4.035,10.117
		c-2.646,2.352-6.379,3.637-11.186,3.637c-1.858,0-3.248-0.098-4.034-0.209v10.121l6.875,0.488v3.05h-18.443v-3.05l4.01-0.488
		V24.668H177.45z M184.898,42.047c0.788,0.189,2.157,0.284,4.03,0.284c2.257,0,4.125-0.775,5.492-2.343
		c1.384-1.583,2.074-4.23,2.074-7.952c0-2.853-0.605-5.005-1.883-6.291c-1.261-1.377-3.135-1.964-5.68-1.964
		c-0.979,0-1.958,0.099-2.94,0.209c-0.489,0.094-0.794,0.094-0.982,0.094v17.965L184.898,42.047L184.898,42.047z M243.682,55.384
		c0,0.981-0.191,3.533-0.491,7.374c-0.265,3.906-0.489,6.095-0.566,6.359h-4.119c0-0.868-0.199-2.719-0.605-5.48
		c-0.379-2.757-0.681-4.306-0.868-4.606h-22.593c-0.189,0.302-0.681,1.774-1.282,4.307c-0.57,2.568-0.977,4.533-1.174,5.895h-4.197
		l0.08-2.344c0.189-5.818,0.302-9.633,0.489-11.503h3.74c0.794-1.172,1.663-2.833,2.646-5.194c0.984-2.362,1.776-5.403,2.568-9.333
		c0.682-3.917,1.06-8.434,1.06-13.639v-2.455l-5.291-0.68v-3.136h31.021v3.136l-4.912,0.68v30.731h4.496V55.384L243.682,55.384z
		 M221.922,27.521c0,4.706-0.218,8.93-0.795,12.752c-0.606,3.835-1.17,6.971-1.966,9.427c-0.793,2.456-1.474,4.42-2.151,5.686
		h14.431l0.074-31.018h-9.521v3.154H221.922z M253.995,24.668l-4.421-0.679v-3.155h16.511v3.155l-4.534,0.679v30.716l4.534,0.598
		v3.049h-16.511v-3.049l4.421-0.488V24.668z M283.956,20.645h7.82l11.9,34.74l2.947,0.491v3.043h-15.111v-3.043l3.813-0.491
		l-1.963-6.668h-13.338l-1.963,6.777l4.117,0.488v3.049H269.03l-0.112-3.049l3.062-0.488L283.956,20.645z M287.582,29.372
		l-0.905-4.024l-0.984,4.024l-4.608,15.811h11.296L287.582,29.372z M313.688,24.668l-3.853-0.679v-3.155h15.625v3.155l-4.329,0.679
		v12.864h15.603V24.668l-3.93-0.679v-3.155h15.415v3.155l-3.93,0.679v30.716l3.93,0.491v3.042H332.73v-3.042l4.002-0.491V41.557
		H321.13v13.937l4.331,0.488v3.049h-15.702v-3.049l3.93-0.488V24.668L313.688,24.668z"/>
	<path fill="#0D3A75" d="M108.141,94.469c-2.248,0-4.022-0.703-5.193-1.966c-1.178-1.284-1.871-3.059-1.871-5.325
		c0-1.471,0.303-2.722,0.983-3.912c0.686-1.076,1.568-1.953,2.645-2.551c1.093-0.604,2.361-0.867,3.834-0.867
		c0.586,0,1.171,0,1.663,0.075c0.601,0.112,1.19,0.188,1.965,0.3c0.589,0.113,0.887,0.113,0.887,0.113l-0.188,3.906h-1.871
		l-0.586-2.733c-0.208-0.113-0.396-0.303-0.793-0.415c-0.397-0.075-0.775-0.075-1.376-0.075c-1.175,0-2.063,0.49-2.742,1.549
		c-0.681,0.982-0.983,2.456-0.983,4.421c0,1.889,0.302,3.359,0.983,4.533c0.68,1.171,1.567,1.756,2.852,1.756
		c0.586,0,1.076-0.092,1.36-0.207c0.303-0.075,0.604-0.281,0.887-0.49l0.888-1.964l1.663,0.22l-0.392,2.93
		c-0.289,0-0.591,0.099-0.875,0.213c-0.302,0.076-0.396,0.074-0.49,0.074c-0.491,0.114-1.078,0.304-1.474,0.304
		C109.425,94.469,108.84,94.469,108.141,94.469 M120.324,81.208l-2.85,0.104l-0.794,4.201h-1.663l0.301-5.591h12.941l0.208,5.591
		H126.9l-0.794-4.201l-2.853-0.104v11.673l2.853,0.19v1.183h-8.444v-1.183l2.551-0.19V81.208H120.324z M132.188,81.396l-1.474-0.303
		v-1.171h3.041h1.285c0.786-0.075,1.475-0.075,2.153-0.075c1.38,0,2.457,0.19,3.343,0.488c0.783,0.267,1.379,0.758,1.76,1.363
		c0.395,0.59,0.488,1.359,0.488,2.34c0,1.668-0.488,2.875-1.567,3.856c-1.076,0.868-2.551,1.359-4.415,1.359
		c-0.779,0-1.271,0-1.573-0.112v3.854l2.758,0.189v1.171h-7.461v-1.171l1.568-0.189v-11.6H132.188z M135.137,87.896
		c0.302,0.075,0.792,0.075,1.567,0.075c0.888,0,1.568-0.304,2.173-0.87c0.586-0.607,0.774-1.586,0.774-2.947
		c0-1.095-0.285-1.864-0.774-2.353c-0.491-0.488-1.284-0.782-2.267-0.782c-0.397,0-0.784,0-1.17,0.075h-0.398v6.801L135.137,87.896
		L135.137,87.896z M149.377,79.848h3.045l4.609,13.033l1.17,0.19v1.183h-5.988v-1.183l1.473-0.19l-0.586-2.456h-5.194l-0.794,2.569
		l1.664,0.189v1.171h-5.101v-1.169l1.186-0.19L149.377,79.848z M150.741,83.059l-0.388-1.474l-0.388,1.586l-1.775,5.894h4.42
		L150.741,83.059z M164.682,87.29l-4.118-5.896l-1.378-0.302v-1.17h6.574v1.17l-1.662,0.302l2.739,4.422l2.852-4.422l-1.757-0.302
		v-1.17h5.191v1.17l-1.657,0.302l-3.93,5.214l4.419,6.272l1.366,0.19v1.183h-6.578v-1.183l1.679-0.19l-3.053-4.722l-2.934,4.722
		l1.957,0.19v1.183h-5.393v-1.183l1.662-0.19L164.682,87.29z M181.266,94.469c-2.152,0-3.815-0.703-4.91-1.966
		c-1.067-1.284-1.661-3.136-1.661-5.402c0-1.474,0.302-2.759,0.876-3.93c0.597-1.096,1.39-1.965,2.455-2.569
		c1.087-0.566,2.259-0.869,3.542-0.869c2.26,0,3.819,0.604,4.997,1.851c1.088,1.285,1.685,3.062,1.685,5.214
		c0,1.474-0.297,2.835-0.899,4.039c-0.575,1.176-1.362,2.045-2.451,2.65C183.83,94.167,182.643,94.469,181.266,94.469
		 M181.462,80.904c-1.073,0-1.963,0.49-2.544,1.586c-0.598,1.06-0.893,2.531-0.893,4.609c0,2.041,0.294,3.515,0.893,4.608
		c0.581,1.081,1.471,1.569,2.544,1.569c1.088,0,1.965-0.588,2.562-1.683c0.575-1.059,0.874-2.646,0.874-4.8
		c0-1.963-0.301-3.529-0.874-4.506C183.427,81.396,182.551,80.904,181.462,80.904 M191.965,81.396l-1.563-0.303v-1.171h3.036
		c0.491,0,1.088,0,1.771-0.075h0.596h0.877c2.07,0,3.437,0.266,4.222,0.755c0.78,0.605,1.269,1.398,1.269,2.456
		c0,0.981-0.286,1.776-0.882,2.382c-0.583,0.565-1.369,0.982-2.351,1.17c1.369,0,2.351,0.304,3.142,0.869
		c0.788,0.606,1.172,1.398,1.172,2.456c0,1.389-0.491,2.456-1.474,3.25c-0.982,0.793-2.646,1.169-4.912,1.169
		c-0.574,0-1.17,0-1.661-0.101h-0.683h-0.982h-3.142v-1.182l1.563-0.189V81.396H191.965z M194.908,86.195h0.896h0.982
		c0.771,0,1.474-0.191,1.86-0.682c0.384-0.49,0.598-1.172,0.598-2.04c0-0.908-0.214-1.475-0.598-1.891
		c-0.386-0.377-1.088-0.566-2.073-0.566c-0.278,0-0.77,0-1.555,0.075v5.104H194.908L194.908,86.195z M194.908,92.996
		c0.302,0.074,0.896,0.189,1.773,0.189c1.172,0,1.965-0.305,2.456-0.794s0.786-1.284,0.786-2.266s-0.19-1.548-0.681-1.965
		c-0.489-0.379-1.193-0.568-2.176-0.568h-2.159V92.996L194.908,92.996z M210.132,79.848h3.024l4.641,13.033l1.174,0.19v1.183h-6.006
		v-1.183l1.472-0.19l-0.792-2.533h-5.176l-0.793,2.533l1.661,0.19v1.183h-5.102v-1.183l1.171-0.19L210.132,79.848z M211.493,83.059
		l-0.379-1.474l-0.399,1.586l-1.755,5.894h4.422L211.493,83.059z M233.669,86.61c0.489,0.075,0.982,0.377,1.397,0.793
		c0.491,0.377,0.795,0.867,1.172,1.36c0.302,0.49,0.793,1.171,1.17,1.963c0.409,0.683,0.681,1.173,0.897,1.476
		c0.199,0.303,0.387,0.49,0.578,0.587l0.793,0.208v1.171h-3.137c-0.302,0-0.679-0.189-0.982-0.68
		c-0.302-0.491-0.683-1.285-1.284-2.268c-0.606-1.172-1.096-2.078-1.472-2.644c-0.381-0.606-0.872-0.908-1.363-0.908h-0.982v5.328
		l1.743,0.19v1.169h-6.277v-1.169l1.587-0.19V81.396l-1.587-0.303v-1.171h6.008v1.171l-1.586,0.303v5.214h1.474l3.74-5.214
		l-1.474-0.303v-1.171h5.289v1.171l-1.661,0.303L233.669,86.61z M247.611,94.469c-2.154,0-3.815-0.703-4.911-1.966
		c-1.059-1.284-1.662-3.136-1.662-5.402c0-1.474,0.302-2.759,0.907-3.93c0.566-1.096,1.359-1.965,2.456-2.569
		c1.056-0.566,2.228-0.869,3.512-0.869c2.267,0,3.817,0.604,5.025,1.851c1.057,1.285,1.662,3.062,1.662,5.214
		c0,1.474-0.304,2.835-0.907,4.039c-0.568,1.176-1.359,2.045-2.451,2.65C250.178,94.052,249.01,94.469,247.611,94.469
		 M247.824,80.904c-1.083,0-1.953,0.49-2.557,1.586c-0.605,1.06-0.87,2.531-0.87,4.609c0,2.041,0.265,3.515,0.87,4.608
		c0.604,1.081,1.474,1.569,2.557,1.569c1.069,0,1.953-0.588,2.545-1.683c0.604-1.059,0.873-2.646,0.873-4.8
		c0-1.963-0.271-3.529-0.873-4.506C249.777,81.396,248.894,80.904,247.824,80.904 M259.097,81.396l-2.154-0.303v-1.171h6.271
		l2.38,8.348l0.567,2.268l0.489-2.268l2.382-8.348h6.158v1.171l-2.151,0.303l1.586,11.484l1.661,0.19v1.183h-6.382v-1.183
		l1.773-0.19l-0.904-8.423l-0.38-3.552l-0.792,2.947l-2.947,9.823H264.5l-2.945-9.219l-0.984-3.438l-0.291,3.513l-0.766,8.464
		l2.041,0.19v1.169h-5.591v-1.169l1.661-0.19L259.097,81.396z M292.684,79.923v1.17l-1.586,0.302v11.486l1.775,0.19v1.183H286.6
		v-1.183l1.551-0.19V81.313h-5.593v11.682l1.661,0.189v1.171h-6.159v-1.169l1.549-0.19V81.396l-1.661-0.303v-1.171H292.684
		L292.684,79.923z M299.749,79.848h3.02l4.626,13.033l1.194,0.19v1.183h-6.01v-1.183l1.476-0.19l-0.795-2.533h-5.176l-0.793,2.533
		l1.662,0.19v1.183h-5.102v-1.183l1.172-0.19L299.749,79.848z M301.223,83.059l-0.416-1.474l-0.378,1.586l-1.775,5.894h4.421
		L301.223,83.059z M311.611,81.396l-1.474-0.303v-1.171h6.084v1.171l-1.663,0.303v4.799h6.084v-4.799l-1.551-0.303v-1.171h6.082
		v1.171l-1.586,0.303v11.6l1.586,0.189v1.169h-6.082v-1.169l1.551-0.189V87.78h-6.084v5.216l1.663,0.189v1.169h-6.084v-1.169
		l1.588-0.189v-11.6H311.611z M329.482,81.396l-1.661-0.303v-1.171h6.457v1.171l-1.737,0.303v11.6l1.737,0.189v1.169h-6.457v-1.169
		l1.661-0.189V81.396z M342.744,88.083c-0.304,0.189-0.682,0.568-0.982,1.171c-0.304,0.605-0.606,1.362-0.984,2.456
		c-0.302,0.869-0.604,1.476-0.794,1.967c-0.188,0.376-0.376,0.577-0.603,0.577h-3.418v-1.068l0.697-0.189
		c0.189-0.115,0.376-0.207,0.565-0.491c0.202-0.303,0.415-0.794,0.69-1.398c0.488-0.869,0.898-1.662,1.276-2.229
		c0.415-0.604,0.791-0.982,1.396-1.209c-0.98-0.189-1.695-0.68-2.184-1.36c-0.488-0.68-0.762-1.578-0.762-2.457
		c0-1.472,0.491-2.456,1.36-3.027c0.87-0.601,2.342-0.901,4.307-0.901c0.493,0,1.098,0,1.778,0.113h0.678h0.908h3.137v1.17
		l-1.589,0.303V93.07L350,93.277v1.19h-6.473v-1.282l1.864-0.19v-4.836h-2.646v-0.075L342.744,88.083L342.744,88.083z M345.2,81.095
		c-0.112,0-0.304,0-0.605-0.074c-0.305,0-0.681-0.114-1.067-0.114c-0.898,0-1.576,0.189-2.069,0.605
		c-0.491,0.378-0.681,1.059-0.681,2.154c0,1.064,0.189,1.85,0.681,2.342c0.489,0.489,1.171,0.793,2.069,0.793
		c0.878,0,1.369,0,1.671-0.113v-5.593H345.2z"/>
	<rect x="100" y="69.721" fill="#00BF63" width="249.807" height="5.103"/>
</g>
</svg>
