<svg width="124" height="28" viewBox="0 0 124 28" fill="none" xmlns="http://www.w3.org/2000/svg">
<path d="M8.64344 18.2564H2.29919L2.85374 19.2055H22.0001L24.1273 15.5641H10.2169L8.64344 18.2564Z" fill="#489AD4"/>
<path d="M11.633 25.54H0.158569L0.712847 26.4893H18.2697L20.3973 22.8479H13.2027L11.633 25.54Z" fill="#2E348E"/>
<path d="M24.1382 11.9237L22.0101 8.28235H2.8433L2.28876 9.23169H8.64325L10.2235 11.9237H24.1382Z" fill="#2BB353"/>
<path d="M13.2134 4.64139H20.4076L18.2804 1H0.702985L0.148438 1.94907H11.6331L13.2134 4.64139Z" fill="#108040"/>
<path d="M33.1382 27.0645V1.36725H38.7182V27.0645H33.1382Z" fill="#202256"/>
<path d="M41.7289 27.0645V1.36725H46.6484L59.4969 18.7682V1.36725H65.0768V27.0645H60.1944L47.3089 9.93536V27.0645H41.7289Z" fill="#202256"/>
<path d="M91.2308 9.1867C90.0929 7.96164 88.6669 7.04041 87.0824 6.50677C85.5365 5.90399 83.8957 5.58076 82.2367 5.55216C80.1513 5.5334 78.1205 6.21884 76.4731 7.49757C74.8212 8.81944 73.72 11.2426 73.72 14.3259C73.72 17.0059 74.4545 19.1349 75.886 20.6407C76.5658 21.3673 77.3913 21.9424 78.3085 22.3282C79.2257 22.7141 80.2141 22.9021 81.2089 22.8799C85.2839 22.8799 87.7652 20.8292 88.1107 16.7121H81.3558V13.1145H93.4347V15.1336C93.4347 19.4284 92.1593 22.6013 89.3964 24.7151C87.0551 26.4972 84.189 27.4526 81.2467 27.4318C78.3086 27.4318 75.3729 26.4402 72.6198 24.4937C69.9399 22.548 68.0679 18.8406 68.0679 14.2879C68.0668 4.48791 76.0696 1 81.4657 1C83.3298 1.04013 85.1759 1.3748 86.9355 1.99161C88.764 2.565 90.4267 3.57241 91.7814 4.92781L91.2308 9.1867Z" fill="#202256"/>
<path d="M120.652 23.0265C117.884 25.8196 114.122 27.4034 110.19 27.4318C104.611 27.4318 96.4226 23.9063 96.4226 14.2155C96.4226 10.508 97.7439 7.31393 99.6532 5.36853C102.627 2.24842 106.776 1 110.19 1C115.77 1 123.847 4.59809 123.847 14.2155C123.845 17.887 122.561 21.0809 120.652 23.0265ZM104.389 7.90074C102.848 9.47861 102.077 11.572 102.077 14.2147C102.077 16.8212 102.848 18.9505 104.389 20.5294C105.931 22.1084 107.877 22.8788 110.19 22.8788C112.502 22.8788 114.411 22.1076 115.917 20.5294C117.422 18.9513 118.193 16.8212 118.193 14.2147C118.193 11.572 117.422 9.47915 115.917 7.90074C114.411 6.32232 112.502 5.55134 110.19 5.55134C107.877 5.55134 105.931 6.32314 104.389 7.90155V7.90074Z" fill="#202256"/>
</svg>
