<?xml version="1.0" encoding="UTF-8"?>
<svg id="Layer_1" xmlns="http://www.w3.org/2000/svg" viewBox="0 0 566.54 207.99">
  <defs>
    <style>
      .cls-1, .cls-2 {
        fill: #231f20;
      }

      .cls-3 {
        fill: #ed1c24;
      }

      .cls-4, .cls-2, .cls-5 {
        fill-rule: evenodd;
      }

      .cls-5 {
        fill: #63727a;
      }
    </style>
  </defs>
  <g id="VIG">
    <polygon class="cls-2" points="14.16 207.72 10.41 207.72 0 177.37 4.98 177.37 12.28 199.46 19.58 177.37 24.64 177.37 14.16 207.72"/>
    <rect class="cls-1" x="29.15" y="177.37" width="4.8" height="30.35"/>
    <polygon class="cls-2" points="42.35 207.72 42.35 177.37 62.6 177.37 62.6 181.51 47.15 181.51 47.15 190.36 60.32 190.36 60.32 194.47 47.15 194.47 47.15 203.59 62.6 203.59 62.6 207.72 42.35 207.72"/>
    <polygon class="cls-2" points="88.74 207.72 74.12 186.36 74.12 207.72 69.31 207.72 69.31 177.37 73.72 177.37 88.34 198.68 88.34 177.37 93.14 177.37 93.14 207.72 88.74 207.72"/>
    <polygon class="cls-2" points="121 207.72 106.36 186.36 106.36 207.72 101.56 207.72 101.56 177.37 105.97 177.37 120.61 198.68 120.61 177.37 125.4 177.37 125.4 207.72 121 207.72"/>
    <path class="cls-2" d="M152.01,207.72l-2.19-6.11h-12.48l-2.18,6.11h-5.11l11.59-30.35h3.88l11.61,30.35h-5.11ZM143.68,184.23l-4.92,13.47h9.72l-4.8-13.47Z"/>
    <rect class="cls-1" x="172.55" y="177.37" width="4.8" height="30.35"/>
    <polygon class="cls-2" points="205.2 207.72 190.57 186.36 190.57 207.72 185.76 207.72 185.76 177.37 190.17 177.37 204.79 198.68 204.79 177.37 209.62 177.37 209.62 207.72 205.2 207.72"/>
    <path class="cls-2" d="M226.43,207.99c-4.77,0-8.2-1.08-11.21-4.02l3.2-3.02c2.3,2.23,4.84,2.9,8.1,2.9,4.13,0,6.52-1.71,6.52-4.65,0-1.33-.37-2.43-1.24-3.16-.81-.73-1.6-1.03-3.47-1.28l-3.74-.51c-2.57-.34-4.62-1.18-6.01-2.43-1.55-1.4-2.31-3.32-2.31-5.78,0-5.29,4.02-8.92,10.59-8.92,4.18,0,7.11,1.01,9.82,3.46l-3.07,2.88c-1.95-1.77-4.21-2.35-6.89-2.35-3.72,0-5.79,2.06-5.79,4.76,0,1.1.36,2.07,1.21,2.82.81.67,2.1,1.19,3.55,1.39l3.62.51c2.93.42,4.57,1.12,5.92,2.26,1.73,1.45,2.57,3.63,2.57,6.24,0,5.57-4.77,8.91-11.38,8.91"/>
    <path class="cls-2" d="M255.24,207.99c-6.44,0-11.33-4.24-11.33-10.5v-20.12h4.8v19.9c0,4.05,2.58,6.57,6.53,6.57s6.59-2.52,6.59-6.57v-19.9h4.82v20.12c0,6.26-4.95,10.5-11.41,10.5"/>
    <path class="cls-2" d="M292.04,207.72l-6.67-12.79h-6.01v12.79h-4.8v-30.35h12.28c6.02,0,9.82,3.7,9.82,8.86,0,4.34-2.75,7.12-6.31,8.05l7.28,13.43h-5.59ZM286.46,181.51h-7.11v9.5h7.11c3.2,0,5.39-1.75,5.39-4.73s-2.19-4.77-5.39-4.77Z"/>
    <path class="cls-2" d="M322.02,207.72l-2.2-6.11h-12.48l-2.17,6.11h-5.13l11.62-30.35h3.85l11.63,30.35h-5.12ZM313.69,184.23l-4.95,13.47h9.75l-4.8-13.47Z"/>
    <polygon class="cls-2" points="351.19 207.72 336.55 186.36 336.55 207.72 331.74 207.72 331.74 177.37 336.15 177.37 350.79 198.68 350.79 177.37 355.6 177.37 355.6 207.72 351.19 207.72"/>
    <path class="cls-2" d="M374.25,207.99c-3.31,0-6.13-1.17-8.33-3.27-3.11-2.97-3.06-6.34-3.06-12.17s-.05-9.22,3.06-12.21c2.2-2.06,5.02-3.22,8.33-3.22,3.95,0,6.47,1.36,8.84,3.57l-3.2,3.11c-1.64-1.58-3.02-2.56-5.64-2.56-1.87,0-3.57.69-4.7,1.84-1.53,1.62-1.84,3.37-1.84,9.47s.31,7.83,1.84,9.46c1.13,1.16,2.82,1.84,4.7,1.84,2.62,0,4.01-.98,5.64-2.56l3.2,3.11c-2.38,2.21-4.89,3.59-8.85,3.59"/>
    <polygon class="cls-2" points="389.68 207.72 389.68 177.37 409.91 177.37 409.91 181.51 394.47 181.51 394.47 190.36 407.64 190.36 407.64 194.47 394.47 194.47 394.47 203.59 409.91 203.59 409.91 207.72 389.68 207.72"/>
    <path class="cls-4" d="M446.29,204.49c-2.24,2.24-5.15,3.5-8.62,3.5s-6.13-1.17-8.32-3.27c-3.11-2.97-3.06-6.34-3.06-12.17,0-5.84-.05-9.22,3.06-12.21,2.19-2.06,4.93-3.22,8.32-3.22,4.31,0,6.71,1.28,9.55,3.98l-3.26,3.13c-1.99-1.92-3.45-2.98-6.3-2.98-1.86,0-3.61.72-4.73,1.86-1.55,1.63-1.84,3.34-1.84,9.44s.3,7.83,1.84,9.46c1.12,1.16,2.87,1.84,4.73,1.84,2.09,0,3.82-.76,5.06-2.14,1.17-1.23,1.57-2.92,1.57-4.82v-1.66h-6.62v-3.91h11.42v4.54c0,3.94-.72,6.48-2.8,8.63"/>
    <path class="cls-2" d="M473.57,207.72l-6.69-12.79h-5.99v12.79h-4.8v-30.35h12.27c6.01,0,9.84,3.7,9.84,8.86,0,4.34-2.75,7.12-6.31,8.05l7.28,13.43h-5.59ZM468.02,181.51h-7.13v9.5h7.13c3.18,0,5.37-1.75,5.37-4.73,0-2.98-2.19-4.77-5.37-4.77Z"/>
    <path class="cls-2" d="M503.93,204.73c-2.17,2.1-4.97,3.27-8.34,3.27s-6.13-1.17-8.33-3.27c-3.11-2.97-3.06-6.34-3.06-12.17,0-5.84-.05-9.22,3.06-12.21,2.2-2.06,4.95-3.22,8.33-3.22s6.17,1.16,8.34,3.22c3.13,2.99,3.04,6.37,3.04,12.21,0,5.83.09,9.21-3.04,12.17M500.3,183.11c-1.12-1.14-2.85-1.86-4.71-1.86s-3.62.72-4.71,1.86c-1.56,1.63-1.87,3.34-1.87,9.44,0,6.1.31,7.79,1.87,9.41,1.09,1.16,2.82,1.89,4.71,1.89s3.59-.73,4.71-1.89c1.56-1.62,1.86-3.31,1.86-9.41s-.3-7.81-1.86-9.44Z"/>
    <path class="cls-2" d="M525.07,207.99c-6.44,0-11.33-4.24-11.33-10.5v-20.12h4.8v19.9c0,4.05,2.57,6.57,6.53,6.57s6.6-2.52,6.6-6.57v-19.9h4.78v20.12c0,6.26-4.91,10.5-11.38,10.5"/>
    <path class="cls-2" d="M556.39,195.79h-7.21v11.93h-4.8v-30.35h12.01c6.19,0,10.15,3.93,10.15,9.19,0,5.31-3.96,9.23-10.15,9.23M556.12,181.51h-6.94v10.1h6.94c3.35,0,5.62-1.83,5.62-5.05s-2.27-5.06-5.62-5.06Z"/>
  </g>
  <path class="cls-5" d="M233.75,21.4v109.18h-21.78v-45.08h-9.93l-15.94,45.08h-21.78l16.85-47.65c-4.64-2.95-8.48-7.32-10.78-12.37-2.14-4.7-2.27-7.74-2.27-12.39v-7.33c0-6.3.14-10.24,4.16-16.54,4.75-7.45,12.95-12.75,21.63-12.9h39.84M199.03,68.23h12.95v-29.55h-10.04c-6.95,0-12.02,4.03-12.02,11.37v10.45c1.01,5.4,4.05,7.73,9.12,7.73ZM362.62,21.4v19.02h-4.78c-11.91.47-2.73,25.52-13.82,34.25l19.77,55.92h-21.78l-16.77-47.43h-9.02v47.43h-21.78v-47.43h-9.02l-16.77,47.43h-21.78l19.77-55.92c-11.09-8.72-1.91-33.78-13.82-34.25h-4.78v-19.02h9.28c30.07,0,10.86,44.57,32.38,44.57h4.74V21.4h21.78v44.57h4.74c21.52,0,2.31-44.57,32.38-44.57h9.28ZM407.24,20.32c11.9,0,31.64,4.72,33.27,30.56v79.7h-21.78v-12.22c-3.37,5.12-6.82,9.57-12.84,11.32-16.92,4.9-30.37-7.28-31.85-21.16-.61-5.73-1.11-16.13.07-21.63,2.52-11.75,13.46-21.53,25.3-21.74h19.33v-9.26c0-18.48-21.99-19.19-23.39-3.4h-20.62c-.29-17.02,11.13-32.17,32.52-32.17ZM418.73,102.67v-20.25h-13.53c-4.28.47-7.95,3.68-9.36,7.54-.87,2.39-.78,13.89.12,16.13,1.92,4.8,6.52,7.74,11.6,7.12,6.57-.81,10.2-6.12,11.17-10.54ZM0,21.4h21.78v43.7h12.83c14.12-6.21.24-43.7,27.82-43.7h9.28v19.02h-4.78c-12.23.48-2.23,26.87-14.76,34.9l19.54,55.26h-21.78l-16.43-46.46h-11.73v46.46H0V21.4ZM129.36,85.5h-22.5v45.08h-21.78V21.4h21.78v45.08h22.5V21.4h21.78v109.18h-21.78v-45.08Z"/>
  <rect class="cls-3" y="148.73" width="566.54" height="8.42"/>
  <g id="Flower">
    <path class="cls-3" d="M565.11.61c-.02-.2-.04-.41-.06-.61h-106.88c-.02.2-.04.41-.06.61-11.5,115.08,50.29,129.57,50.29,129.57l3.23.6,3.19-.6s61.79-14.49,50.29-129.57ZM527.17,24.89s-14.26,12.98-15.56,27.49c-1.3-14.51-15.56-27.49-15.56-27.49,0,0,6.04-7.29,15.56-9.67,9.52,2.38,15.56,9.67,15.56,9.67ZM514.13,117.02c-.61.26-2.52.64-2.52.64,0,0-2.34-.56-2.51-.64,0,0-48.52-11.7-39.3-104.65,0,0,35.87,27.71,41.82,69.58,5.95-41.87,41.82-69.58,41.82-69.58,9.22,92.96-39.3,104.65-39.3,104.65Z"/>
  </g>
</svg>