<svg width="832" height="292" viewBox="0 0 832 292" fill="none" xmlns="http://www.w3.org/2000/svg">
<g clip-path="url(#clip0_1_3)">
<path d="M615.264 288.663H610.272V283.657H615.264C616.512 283.657 617.76 284.491 617.76 286.16C617.76 287.411 616.928 288.663 615.264 288.663ZM610.272 276.566H614.848C616.096 276.566 616.928 277.4 616.928 278.651C616.928 279.903 616.096 280.737 614.848 280.737H610.272V276.566ZM618.176 281.989C619.424 281.154 620.672 279.903 620.672 278.234C620.672 275.731 618.592 273.646 616.096 273.646H606.528V292H616.928C619.84 292 621.92 289.497 621.92 286.994C621.504 284.491 620.256 282.406 618.176 281.989ZM718.016 285.743L712.192 273.229H708.448V291.583H712.192V281.571L716.768 291.583H718.848L723.424 281.571V291.583H727.168V273.229H723.84L718.016 285.743ZM675.168 273.646L667.68 282.406V273.646H663.936V292H667.68V283.24L675.168 292H679.328L671.424 282.823L679.328 273.646H675.168ZM284.96 273.646L277.472 282.406V273.646H273.728V292H277.472V283.24L284.96 292H289.12L281.216 282.823L289.12 273.646H284.96ZM153.92 273.646L147.68 292H151.84L156.832 277.817L161.824 292H165.984L159.744 273.646H153.92ZM255.424 284.074L257.92 277.4L260.416 284.074H255.424ZM255.424 273.646L249.184 292H253.344L255.008 287.829H262.08L263.744 292H267.904L261.664 273.646H255.424ZM762.528 284.074L765.024 277.4L767.52 284.074H762.528ZM762.112 273.646L755.872 292H760.032L761.696 287.829H768.768L770.432 292H774.592L768.352 273.646H762.112ZM633.984 284.074L636.48 277.4L638.976 284.074H633.984ZM633.568 273.646L627.328 292H631.488L633.152 287.829H640.224L641.888 292H646.048L639.808 273.646H633.568ZM544.128 284.074L546.624 277.4L549.12 284.074H544.128ZM543.712 273.646L537.472 292H541.632L543.296 287.829H550.368L552.032 292H556.192L549.952 273.646H543.712ZM447.616 284.074L450.112 277.4L452.608 284.074H447.616ZM447.2 273.646L440.96 292H445.12L446.784 287.829H453.856L455.52 292H459.68L453.44 273.646H447.2ZM790.4 280.737H782.912V273.646H779.168V292H782.912V283.657H790.4V291.583H794.144V273.229H790.4V280.737ZM430.976 280.737H423.488V273.646H420.16V292H423.904V283.657H431.392V291.583H435.136V273.229H431.392V280.737H430.976ZM221.312 284.074L223.808 277.4L226.304 284.074H221.312ZM220.896 273.646L214.656 292H218.816L220.48 287.829H227.552L229.216 292H233.376L227.136 273.646H220.896ZM131.456 284.074L133.952 277.4L136.448 284.074H131.456ZM131.456 273.646L124.8 291.583H128.96L130.624 287.411H137.28L138.944 291.583H143.104L136.864 273.229H131.456V273.646ZM27.456 284.074L29.952 277.4L32.448 284.074H27.456ZM27.04 273.646L20.8 291.583H24.96L26.624 287.411H33.28L34.944 291.583H39.104L32.864 273.229H27.04V273.646ZM572.416 273.646L568.672 279.069L564.928 273.646H560.352L566.176 282.823L560.352 292H564.928L568.672 286.577L572.416 292H576.992L571.168 282.823L576.992 273.646H572.416ZM734.656 291.583H738.4V276.566H745.888V291.583H749.632V273.229H734.656V291.583ZM497.952 276.566H503.776V291.583H507.52V276.566H512.928V273.646H497.952V276.566ZM484.64 288.663C481.312 288.663 479.648 285.743 479.648 282.406C479.648 277.4 482.56 276.149 484.64 276.149C487.136 276.149 488.8 278.234 488.8 279.486H492.96C492.544 276.566 490.048 273.229 484.64 273.229C480.064 273.229 475.904 276.566 475.904 282.823C475.904 289.08 479.648 292.417 484.64 292.417C489.216 292.417 492.544 289.497 493.376 285.743H489.216C487.968 287.829 486.304 288.663 484.64 288.663ZM381.472 283.657H388.96V280.737H381.472V276.566H391.04V273.646H377.312V292H391.04V289.08H381.056V283.657H381.472ZM205.088 280.737H197.6V273.646H193.856V292H197.6V283.657H205.088V291.583H208.832V273.229H205.088V280.737ZM115.232 280.737H108.16V273.646H104V292H108.16V283.657H115.648V291.583H119.392V273.229H115.648V280.737H115.232ZM366.496 280.737H359.008V273.646H355.264V292H359.008V283.657H366.496V291.583H370.24V273.229H366.496V280.737ZM11.232 280.737H3.744V273.646H0V292H3.744V283.657H11.232V291.583H14.976V273.229H11.232V280.737ZM693.056 288.663C690.976 288.663 688.064 287.411 688.064 282.406C688.064 277.4 690.976 276.149 693.056 276.149C695.136 276.149 698.048 277.4 698.048 282.406C697.632 287.411 695.136 288.663 693.056 288.663ZM693.056 273.229C690.56 273.229 684.32 274.063 684.32 282.823C684.32 291.166 690.56 292.417 693.056 292.417C695.552 292.417 701.792 291.583 701.792 282.823C701.792 274.063 695.136 273.229 693.056 273.229ZM590.304 288.663C588.224 288.663 585.312 287.411 585.312 282.406C585.312 277.4 588.224 276.149 590.304 276.149C592.384 276.149 595.296 277.4 595.296 282.406C595.296 287.411 592.384 288.663 590.304 288.663ZM590.304 273.229C587.808 273.229 581.568 274.063 581.568 282.823C581.568 291.166 587.808 292.417 590.304 292.417C592.8 292.417 599.04 291.583 599.04 282.823C599.04 274.063 592.8 273.229 590.304 273.229ZM339.04 288.663C336.96 288.663 334.048 287.411 334.048 282.406C334.048 277.4 336.96 276.149 339.04 276.149C341.12 276.149 344.032 277.4 344.032 282.406C343.616 287.411 341.12 288.663 339.04 288.663ZM339.04 273.229C336.544 273.229 330.304 274.063 330.304 282.823C330.304 291.166 336.544 292.417 339.04 292.417C341.536 292.417 347.776 291.583 347.776 282.823C347.776 274.063 341.12 273.229 339.04 273.229ZM88.192 288.663C86.112 288.663 83.2 287.411 83.2 282.406C83.2 277.4 86.112 276.149 88.192 276.149C90.272 276.149 93.184 277.4 93.184 282.406C92.768 287.411 90.272 288.663 88.192 288.663ZM88.192 273.229C85.696 273.229 79.456 274.063 79.456 282.823C79.456 291.166 85.696 292.417 88.192 292.417C90.688 292.417 96.928 291.583 96.928 282.823C96.928 274.063 90.272 273.229 88.192 273.229ZM802.464 291.583H806.208V273.229H802.464V291.583ZM319.072 291.583H322.816V273.229H319.072V291.583ZM68.224 291.583H71.968V273.229H68.224V291.583ZM311.168 288.663V273.646H307.424V288.663H299.936V273.646H296.192V292H313.664L312.832 289.08H311.168V288.663ZM59.904 288.663V273.646H56.16V288.663H48.672V273.646H44.928V292H62.4L61.568 289.08H59.904V288.663ZM825.76 281.571H820.768C819.52 281.571 818.272 280.32 818.272 279.069C818.272 277.817 819.52 276.566 820.768 276.566H825.76V281.571ZM825.76 273.646H820.352C817.024 273.646 814.528 276.149 814.528 279.486C814.528 281.989 816.192 284.074 818.272 284.909L814.944 292H819.104L822.432 285.326H825.76V292H829.504V273.646H825.76ZM527.488 281.571H522.912V276.566H527.488C528.736 276.566 529.984 277.817 529.984 279.069C529.984 280.737 529.152 281.571 527.488 281.571ZM527.904 273.646H518.752V292H522.496V285.326H527.904C531.232 285.326 533.728 282.823 533.728 279.486C534.144 276.149 531.232 273.646 527.904 273.646ZM407.264 281.571H402.688V276.566H407.264C408.512 276.566 409.76 277.817 409.76 279.069C409.76 280.737 408.512 281.571 407.264 281.571ZM407.68 273.646H398.528V292H402.272V285.326H407.68C411.008 285.326 413.504 282.823 413.504 279.486C413.504 276.149 410.592 273.646 407.68 273.646ZM180.544 288.663H175.968V283.657H180.544C181.792 283.657 183.04 284.909 183.04 286.16C183.04 287.411 181.792 288.663 180.544 288.663ZM180.96 280.32H175.552V273.646H171.808V292H180.96C184.288 292 186.784 289.497 186.784 286.16C186.784 282.823 184.288 280.32 180.96 280.32Z" fill="#00539B"/>
<path d="M0 92.1886C123.136 49.64 263.328 25.4457 414.336 25.4457C565.344 25.4457 708.032 49.2229 832 92.1886V65.0743C704.288 22.5257 562.016 0 414.336 0C266.656 0 126.464 22.5257 0 65.0743V92.1886Z" fill="#F58426"/>
<path d="M324.064 180.206L336.128 151.84H344.032L356.096 180.206H324.064ZM314.08 120.971L262.08 241.943H298.272L312 210.24H370.24L383.968 241.943H420.16L367.744 120.971H314.08ZM105.664 175.617V187.297C105.664 195.223 102.336 202.314 97.344 207.737C92.352 212.743 84.864 216.08 77.376 216.08H61.984C54.08 216.08 47.008 212.743 41.6 207.737C36.608 202.731 33.28 195.223 33.28 187.714V176.034C33.28 168.109 36.608 161.017 41.6 155.594C46.592 150.589 54.08 147.251 61.568 147.251H76.96C84.864 147.251 91.936 150.589 97.344 155.594C102.752 160.6 105.664 167.691 105.664 175.617ZM79.456 119.303H59.072C43.264 119.303 28.704 125.56 17.888 135.989C7.488 146.417 0.832001 160.6 0.832001 176.034V188.549C0.832001 203.983 7.488 218.583 17.888 228.594C28.704 239.023 43.264 245.28 59.072 245.28H79.456C95.264 245.28 109.824 239.023 120.64 228.594C131.456 218.166 137.696 203.983 137.696 188.549V176.034C137.696 160.183 131.04 146.417 120.64 135.989C110.24 125.56 95.68 119.303 79.456 119.303ZM736.736 180.206L748.8 151.84H756.704L768.768 180.206H736.736ZM779.584 120.971H725.92L673.92 241.943H710.112L723.84 210.24H782.08L795.808 241.943H832L779.584 120.971ZM712.192 120.971H574.08V151.423H621.504V241.943H654.784V151.423H698.88L712.192 120.971ZM528.32 164.771H464.672V120.971H431.392V241.943H464.672V195.223H528.32V241.943H561.6V120.971H528.32V164.771ZM245.44 159.766C245.44 165.606 243.36 170.611 239.616 173.949C235.872 177.703 230.88 179.789 225.472 179.789H182.208V151.006H245.44V159.766ZM279.552 159.349V120.971H149.76V241.943H182.624V210.24H228.8C242.528 210.24 255.424 204.4 264.576 195.223C274.144 186.046 279.552 173.531 279.552 159.349Z" fill="#00539B"/>
</g>
<defs>
<clipPath id="clip0_1_3">
<rect width="832" height="292" fill="white"/>
</clipPath>
</defs>
</svg>
