<svg version="1.2" xmlns="http://www.w3.org/2000/svg" viewBox="0 0 116 116" width="116" height="116">
	<title>PZU Лого новый_Знак</title>
	<defs>
		<radialGradient id="g1" cx="0" cy="0" r="1" gradientUnits="userSpaceOnUse" gradientTransform="matrix(104.68,0,0,104.68,25.06,21.78)">
			<stop offset="0" stop-color="#84cff2"/>
			<stop offset=".15" stop-color="#00ade9"/>
			<stop offset=".34" stop-color="#0076bc"/>
			<stop offset=".5" stop-color="#004e9b"/>
			<stop offset="1" stop-color="#0c1a4c"/>
		</radialGradient>
	</defs>
	<style>
		.s0 { fill: none } 
		.s1 { fill: url(#g1) } 
	</style>
	<g id="белый_фон">
		<path fill-rule="evenodd" class="s0" d="m-27-27h170.1v170.1h-170.1z"/>
	</g>
	<g id="лого">
		<path class="s1" d="m58 1.3c-31.3 0-56.7 25.4-56.7 56.7 0 31.3 25.4 56.7 56.7 56.7 31.3 0 56.7-25.4 56.7-56.7 0-31.3-25.4-56.6-56.7-56.7zm0 96.6c-22 0-39.9-17.8-39.9-39.9 0-22.1 17.9-39.8 39.9-39.8 22 0 39.9 17.8 39.9 39.9 0 22.1-17.9 39.8-39.9 39.8zm-19.4-50.9h-11.1l0.8 5.2v16.9h6.2v-5.3h4.1c4.6-0.1 8.3-3.8 8.4-8.5 0-4.5-3.8-8.3-8.4-8.3zm43.4 13.1c0.1 2-1.4 3.7-3.4 3.8-2 0.1-3.7-1.4-3.8-3.4 0-0.1 0-0.3 0-0.4 0-0.2 0-12.5 0-13.7l-6.3 1v12.4c-0.2 5.5 4.1 10 9.6 10.2 5.5 0.2 10-4.1 10.2-9.6q0-0.3 0-0.6v-13.3l-6.3 1c0 1 0 12.5 0 12.6zm-26.7 14.1v-0.1l12.7-38.7h-21.6l1.3 6.4h10.8v0.2l-13.1 39h23.3l-1.5-6.8zm-17.2-15.3h-3.5v-6.7h3.5c1.8 0 3.2 1.5 3.3 3.3-0.1 1.8-1.5 3.3-3.3 3.4z"/>
	</g>
</svg>