<?xml version="1.0" encoding="utf-8"?>
<!-- Generator: Adobe Illustrator 26.0.3, SVG Export Plug-In . SVG Version: 6.00 Build 0)  -->
<svg version="1.1" id="Layer_1" xmlns="http://www.w3.org/2000/svg" xmlns:xlink="http://www.w3.org/1999/xlink" x="0px" y="0px"
	 viewBox="0 0 127.11 41.78" style="enable-background:new 0 0 127.11 41.78;" xml:space="preserve">
<style type="text/css">
	.st0{fill:#003660;}
	.st1{fill:#FFF200;}
	.st2{fill:#00AEEF;}
</style>
<path class="st0" d="M4.3,38.39h1.53v0.16c0,0.2-0.01,0.37-0.01,0.49c-0.01,0.13-0.03,0.26-0.06,0.39
	c-0.03,0.13-0.08,0.26-0.15,0.37c-0.07,0.12-0.17,0.23-0.29,0.33c-0.16,0.13-0.33,0.22-0.51,0.28c-0.18,0.06-0.37,0.1-0.55,0.11
	c-0.18,0.01-0.42,0.02-0.7,0.02c-0.46,0-0.83-0.02-1.12-0.05s-0.55-0.12-0.78-0.26c-0.23-0.14-0.41-0.35-0.53-0.64
	C1,39.32,0.94,38.93,0.94,38.44v-1.45c0-0.59,0.1-1.04,0.3-1.35c0.2-0.31,0.49-0.51,0.86-0.62c0.37-0.1,0.86-0.15,1.46-0.15
	c0.52,0,0.94,0.06,1.27,0.16c0.33,0.11,0.58,0.3,0.75,0.57c0.17,0.27,0.25,0.64,0.25,1.1v0.22H4.3v-0.22
	c-0.02-0.16-0.06-0.28-0.14-0.35c-0.07-0.08-0.17-0.13-0.29-0.15c-0.12-0.02-0.28-0.03-0.48-0.03c-0.28,0-0.49,0.03-0.61,0.09
	c-0.13,0.06-0.21,0.17-0.26,0.31c-0.04,0.14-0.06,0.36-0.06,0.65v0.87c0,0.24,0.01,0.43,0.02,0.56C2.51,38.8,2.54,38.91,2.6,39
	c0.06,0.09,0.15,0.15,0.27,0.19c0.12,0.04,0.29,0.06,0.52,0.06c0.23,0,0.41-0.02,0.54-0.04c0.12-0.03,0.22-0.09,0.28-0.19
	c0.06-0.1,0.1-0.25,0.1-0.46V38.39z"/>
<path class="st0" d="M125.91,19.15c0,0.02-0.02,3.05-0.02,3.08c0.01,3.6-4.08,8.19-10.12,8.19H97.13c-1.76,0-9.62-2.08-9.62-9.61
	V10.05c0-4.15,3.81-9.16,9.65-9.16h16.25c0,0,0.11,0.04,3.07,0.04c4.03,0,9.46,3.02,9.46,9.04v2.93c0,0-12.36,0.03-12.36,0
	c0-1.49-1.29-3.91-3.75-3.91h-5.21c-3.1,0-4.64,2.28-4.64,4.72c0,0.02-0.04,3.92-0.04,3.96c0,3.26,2.55,4.58,4.59,4.58h5.43
	c2.74,0,3.47-3.1,3.47-3.1L125.91,19.15z"/>
<path class="st0" d="M47.2,30.36c-5.25-8.1-4.67-18.75,5.11-29.41h30.6v29.41h-16.1V10l-7.86-0.03c-5.99,6.13-2.86,16.38,0.07,20.39
	C59.03,30.36,47.2,30.36,47.2,30.36"/>
<polygon class="st0" points="12.36,30.36 12.36,9.99 0.97,9.99 0.97,0.98 45.48,0.95 39.88,9.99 30.43,9.99 30.43,30.36 "/>
<path class="st1" d="M55.53,18.63h25.33l-2.99,4.55H56.02c0,0-0.39-1.45-0.46-2.5C55.5,19.66,55.53,18.63,55.53,18.63"/>
<path class="st2" d="M55.95,15.65H82.8l-1.94,2.98H55.52c0,0,0.1-1.39,0.19-2C55.8,16.04,55.95,15.65,55.95,15.65"/>
<polygon class="st0" points="11.08,36.22 11.08,40.51 9.6,40.51 9.6,36.22 8.18,36.22 8.18,34.91 12.58,34.91 12.58,36.22 "/>
<path class="st0" d="M16.59,36.22h1.01c0.19,0,0.33,0.02,0.43,0.06c0.09,0.05,0.16,0.12,0.19,0.23c0.03,0.1,0.05,0.26,0.05,0.46
	c0,0.25-0.02,0.43-0.05,0.54c-0.03,0.11-0.09,0.18-0.18,0.22c-0.09,0.04-0.23,0.05-0.43,0.05h-1.01V36.22z M16.59,39.08h1.31
	c0.39,0,0.7-0.04,0.95-0.11c0.24-0.07,0.44-0.19,0.57-0.35c0.14-0.16,0.23-0.37,0.29-0.64c0.06-0.27,0.08-0.61,0.08-1.02
	c0-0.37-0.04-0.68-0.1-0.94c-0.07-0.26-0.18-0.47-0.33-0.63c-0.15-0.16-0.34-0.28-0.58-0.36c-0.24-0.08-0.54-0.12-0.88-0.12H15.1
	v5.6h1.48V39.08z"/>
<path class="st0" d="M24.08,38.46l0.67-2.42h0.02l0.69,2.42H24.08z M26.04,40.51h1.51l-1.69-5.6h-2.25l-1.66,5.6h1.54l0.27-0.96
	h1.99L26.04,40.51z"/>
<polygon class="st0" points="34.98,34.91 33.45,37.63 35.1,40.51 33.38,40.51 32.28,38.36 31.18,40.51 29.44,40.51 31.11,37.63 
	29.55,34.91 31.28,34.91 32.28,36.97 33.28,34.91 "/>
<path class="st0" d="M39.26,39.19c-0.14-0.04-0.24-0.12-0.31-0.25c-0.07-0.13-0.1-0.33-0.11-0.6v-1.26c0.01-0.27,0.04-0.47,0.11-0.6
	c0.06-0.13,0.17-0.21,0.31-0.25c0.14-0.04,0.35-0.06,0.63-0.06c0.21,0,0.38,0.01,0.51,0.03c0.13,0.02,0.23,0.06,0.31,0.12
	c0.08,0.06,0.14,0.15,0.18,0.27c0.04,0.12,0.05,0.28,0.05,0.49v1.26c0,0.27-0.03,0.47-0.1,0.6c-0.07,0.13-0.17,0.21-0.31,0.25
	c-0.14,0.04-0.36,0.06-0.64,0.06C39.61,39.25,39.4,39.23,39.26,39.19 M40.97,40.47c0.3-0.06,0.57-0.16,0.79-0.31
	c0.22-0.15,0.4-0.36,0.52-0.63c0.12-0.27,0.18-0.61,0.18-1.03v-1.58c0-0.42-0.06-0.76-0.18-1.03c-0.12-0.27-0.3-0.48-0.52-0.63
	c-0.22-0.15-0.49-0.25-0.79-0.31c-0.31-0.06-0.66-0.09-1.08-0.09c-0.41,0-0.77,0.03-1.07,0.09c-0.3,0.06-0.57,0.16-0.79,0.31
	c-0.22,0.15-0.4,0.35-0.52,0.63c-0.12,0.27-0.19,0.62-0.19,1.03v1.58c0,0.42,0.06,0.76,0.18,1.03c0.12,0.27,0.3,0.48,0.52,0.63
	c0.23,0.15,0.49,0.25,0.79,0.31c0.3,0.06,0.66,0.09,1.07,0.09C40.3,40.56,40.66,40.53,40.97,40.47"/>
<path class="st0" d="M47.97,36.14c0.19,0,0.32,0.03,0.38,0.1c0.06,0.07,0.09,0.19,0.09,0.37c0,0.15-0.02,0.26-0.05,0.34
	c-0.04,0.07-0.1,0.13-0.18,0.15c-0.09,0.03-0.22,0.04-0.41,0.04h-1.07v-1.01H47.97z M48.19,40.51c0.44,0,0.78-0.04,1.03-0.11
	c0.25-0.07,0.45-0.22,0.58-0.45c0.13-0.22,0.2-0.56,0.2-1c0-0.26-0.02-0.48-0.07-0.65c-0.05-0.17-0.14-0.31-0.29-0.42
	c-0.14-0.11-0.34-0.17-0.6-0.18v-0.06c0.23-0.04,0.42-0.11,0.54-0.22c0.13-0.11,0.21-0.25,0.26-0.42c0.05-0.17,0.07-0.39,0.07-0.65
	c0-0.39-0.07-0.69-0.2-0.9c-0.14-0.21-0.33-0.35-0.58-0.42c-0.25-0.07-0.58-0.11-0.98-0.11h-2.92v5.6H48.19z M47.88,38.19
	c0.25,0,0.43,0.03,0.52,0.1c0.09,0.06,0.14,0.21,0.14,0.43c0,0.15-0.02,0.26-0.07,0.35c-0.04,0.08-0.12,0.14-0.21,0.17
	c-0.1,0.03-0.23,0.05-0.4,0.05h-1.12v-1.09H47.88z"/>
<path class="st0" d="M54.41,38.46l0.67-2.42h0.01l0.69,2.42H54.41z M56.38,40.51h1.51l-1.69-5.6h-2.25l-1.67,5.6h1.54l0.27-0.96
	h1.99L56.38,40.51z"/>
<polygon class="st0" points="65.08,40.51 65.08,34.91 68.88,34.91 68.88,36.21 66.57,36.21 66.57,40.51 "/>
<path class="st0" d="M73,36.22h1.01c0.19,0,0.33,0.02,0.43,0.06c0.09,0.05,0.16,0.12,0.19,0.23c0.03,0.1,0.05,0.26,0.05,0.46
	c0,0.25-0.02,0.43-0.05,0.54c-0.03,0.11-0.09,0.18-0.18,0.22c-0.09,0.04-0.23,0.05-0.43,0.05H73V36.22z M73,39.08h1.31
	c0.39,0,0.7-0.04,0.95-0.11c0.25-0.07,0.43-0.19,0.57-0.35c0.14-0.16,0.23-0.37,0.29-0.64c0.06-0.27,0.08-0.61,0.08-1.02
	c0-0.37-0.04-0.68-0.1-0.94c-0.07-0.26-0.18-0.47-0.32-0.63c-0.15-0.16-0.34-0.28-0.58-0.36c-0.24-0.08-0.54-0.12-0.88-0.12h-2.79
	v5.6H73V39.08z"/>
<path class="st0" d="M78.47,34.91h1.68l0.98,2.4h0.07l0.95-2.4h1.71l-2.1,4.32c-0.16,0.33-0.33,0.58-0.49,0.77
	c-0.16,0.19-0.35,0.33-0.55,0.42c-0.2,0.09-0.45,0.13-0.75,0.13c-0.21,0-0.46-0.02-0.74-0.07v-1.22c0.1,0.03,0.27,0.05,0.49,0.05
	c0.16,0,0.28-0.01,0.36-0.03c0.08-0.02,0.14-0.05,0.18-0.09c0.04-0.05,0.08-0.12,0.11-0.23L78.47,34.91z"/>
<polygon class="st0" points="91.39,34.91 91.39,40.51 89.91,40.51 89.91,36.22 87.98,36.22 87.98,40.51 86.5,40.51 86.5,34.91 "/>
<path class="st0" d="M96.01,38.46l0.68-2.42h0.02l0.69,2.42H96.01z M97.97,40.51h1.51l-1.69-5.6h-2.25l-1.66,5.6h1.54l0.27-0.96
	h1.99L97.97,40.51z"/>
<polygon class="st0" points="109.61,36.22 109.61,40.51 108.13,40.51 108.13,36.22 106.7,36.22 106.7,34.91 111.1,34.91 
	111.1,36.22 "/>
<path class="st0" d="M115.24,38.46l0.67-2.42h0.02l0.69,2.42H115.24z M117.21,40.51h1.51l-1.69-5.6h-2.25l-1.66,5.6h1.54l0.27-0.96
	h1.99L117.21,40.51z"/>
<path class="st0" d="M124.35,38.39h1.53v0.16c0,0.2-0.01,0.37-0.01,0.49c-0.01,0.13-0.03,0.26-0.06,0.39
	c-0.03,0.13-0.08,0.26-0.15,0.37c-0.07,0.12-0.17,0.23-0.29,0.33c-0.16,0.13-0.33,0.22-0.51,0.28c-0.18,0.06-0.37,0.1-0.55,0.11
	c-0.18,0.01-0.42,0.02-0.7,0.02c-0.46,0-0.83-0.02-1.12-0.05c-0.29-0.04-0.55-0.12-0.78-0.26c-0.23-0.14-0.41-0.35-0.53-0.64
	c-0.12-0.29-0.19-0.68-0.19-1.17v-1.45c0-0.59,0.1-1.04,0.3-1.35c0.2-0.31,0.49-0.51,0.86-0.62c0.37-0.1,0.85-0.15,1.46-0.15
	c0.52,0,0.94,0.06,1.27,0.16c0.33,0.11,0.58,0.3,0.75,0.57c0.17,0.27,0.26,0.64,0.26,1.1v0.22h-1.53v-0.22
	c-0.02-0.16-0.06-0.28-0.14-0.35c-0.08-0.08-0.17-0.13-0.29-0.15c-0.12-0.02-0.28-0.03-0.48-0.03c-0.28,0-0.49,0.03-0.61,0.09
	c-0.13,0.06-0.21,0.17-0.25,0.31c-0.04,0.14-0.06,0.36-0.06,0.65v0.87c0,0.24,0.01,0.43,0.02,0.56s0.05,0.24,0.11,0.33
	c0.06,0.09,0.15,0.15,0.27,0.19c0.12,0.04,0.29,0.06,0.52,0.06c0.23,0,0.41-0.02,0.54-0.04c0.12-0.03,0.22-0.09,0.28-0.19
	c0.06-0.1,0.09-0.25,0.09-0.46V38.39z"/>
</svg>
