<svg width="155" height="28" viewBox="0 0 155 28" fill="none" xmlns="http://www.w3.org/2000/svg">
<g clip-path="url(#clip0_54285_35556)">
<path d="M53.8044 5.04526H57.9585V17.3561C57.9585 21.4217 60.3754 23.8599 63.5482 23.8599C66.7555 23.8599 69.137 21.4217 69.137 17.3561V5.04526H73.2921V18.2404C73.2921 23.3645 69.47 27.742 63.5482 27.742C57.6255 27.742 53.8044 23.3645 53.8044 18.2404V5.04526Z" fill="#0066B3"/>
<path d="M96.3545 27.2652V5.04526H92.2458V18.9092L80.1843 5.04526H77.9399V27.2272H82.0486V13.4224L94.0832 27.2652H96.3545Z" fill="#0066B3"/>
<path d="M105.537 5.04526H101.271V27.2272H105.537V5.04526Z" fill="#0066B3"/>
<path fill-rule="evenodd" clip-rule="evenodd" d="M121.039 24.2353C116.787 24.2353 113.34 20.6093 113.34 16.1371C113.34 11.6623 116.787 8.03718 121.039 8.03718C125.293 8.03718 128.74 11.6623 128.74 16.1371C128.74 17.6647 128.337 19.0952 127.637 20.3151L125.087 17.7518L122.383 20.469L124.989 23.0897C123.833 23.8176 122.484 24.2353 121.039 24.2353ZM132.898 16.1371C132.898 9.61726 127.589 4.33344 121.039 4.33344C114.492 4.33344 109.182 9.61726 109.182 16.1371C109.182 22.6552 114.492 27.9415 121.039 27.9415C123.532 27.9415 125.842 27.1739 127.75 25.8669L129.685 27.8114L132.388 25.0934L130.526 23.2199C132.014 21.2467 132.898 18.7942 132.898 16.1371Z" fill="#0066B3"/>
<path d="M140.714 19.402L144.029 11.4239L147.241 19.402H140.714ZM150.391 27.2272H154.942L145.543 5.04526H142.681L133.036 27.2272H137.463L139.2 23.0491H148.71L150.391 27.2272Z" fill="#0066B3"/>
<path d="M15.0947 26.9051H0L1.73063 23.8058H10.5974C10.9859 24.1676 11.3912 24.5109 11.81 24.8355C12.804 25.604 13.9065 26.3234 15.0947 26.9051Z" fill="#0066B3"/>
<path d="M18.4189 4.40613C17.9311 4.81784 14.813 10.9124 18.6485 16.2757C19.7299 17.7881 21.31 19.6311 23.1626 20.7116C25.0883 21.836 26.3766 22.1209 27.2024 22.3458C28.6572 22.7439 30.9109 22.908 33.8138 23.066C36.1642 23.1945 40.9777 23.2216 41.8186 23.2199L42.715 23.2241L44.7753 27.1705C44.7753 27.1705 37.7821 27.2018 34.5311 27.026C30.8747 26.8273 28.0341 26.6193 26.2025 26.1188C25.1623 25.8348 23.541 25.4755 21.1132 24.0603C18.7805 22.6991 16.3889 20.3185 15.1468 18.3309C12.1548 13.5383 12.9057 10.3215 13.2985 8.74224C14.1528 7.55275 15.2553 6.4106 16.4461 5.56181C17.308 4.93789 17.8462 4.69272 18.4189 4.40613Z" fill="#0066B3"/>
<path d="M23.261 26.659C22.3721 26.8298 21.5068 26.9084 20.6978 26.9068C17.7403 26.9017 14.9559 25.5084 12.6568 23.7297C9.89859 21.595 7.88204 18.6259 7.37075 15.3939C7.29591 15.0177 7.26227 14.6365 7.20761 14.1022C7.00327 11.8889 7.31946 9.10492 8.8634 6.44272C10.1996 4.14151 12.191 2.14634 15.4714 0.766633C16.8405 0.190908 19.7795 -0.456677 23.1828 0.452985C26.7584 1.44381 29.8833 3.674 31.8931 6.60166C31.8931 6.60166 28.8094 2.57328 23.5343 2.11084C23.2954 2.09055 23.0575 2.07702 22.8178 2.07364C20.2117 2.02122 17.7192 2.92328 15.643 4.42388C14.3135 5.37074 13.1488 6.56446 12.2456 7.93826C12.196 8.01434 12.0371 8.25021 11.826 8.62642L11.7629 8.73971C11.7184 8.82002 11.6721 8.90625 11.6259 8.99756C10.9859 10.2293 10.0912 12.4342 10.0558 15.2198C10.0104 18.806 11.6099 21.3921 12.2095 22.2638C12.2246 22.2866 13.713 23.2968 15.9651 23.7288C16.8783 23.903 17.7386 23.9334 18.4719 23.9132C19.0899 24.4136 19.7417 24.8727 20.4169 25.2667C21.511 25.9049 22.4537 26.342 23.261 26.659Z" fill="#0066B3"/>
<path d="M29.0121 5.65057C30.9563 6.81217 33.7574 10.455 33.8861 13.7657C34.093 16.9267 32.5145 20.0133 31.4617 21.5223C29.7563 21.3981 28.4629 21.2459 27.5657 21.0007C27.2873 20.9246 26.9518 20.8418 26.5532 20.7175C27.6708 19.6827 29.3325 17.734 30.1759 14.7421C31.3398 10.5658 30.1911 7.72775 29.0121 5.65057Z" fill="#0066B3"/>
</g>
<defs>
<clipPath id="clip0_54285_35556">
<rect width="155" height="28" fill="white"/>
</clipPath>
</defs>
</svg>
