<svg width="107" height="44" viewBox="0 0 107 44" fill="none" xmlns="http://www.w3.org/2000/svg">
<g clip-path="url(#clip0_932_11631)">
<path d="M107 32.387H0V33.9552H107V32.387Z" fill="#E2000F"/>
<path d="M2.69165 43.1394H1.98207L0 37.6258H0.963286L2.33884 41.636L3.71836 37.6258H4.67372L2.69165 43.1394ZM5.52204 37.6258H6.42983V43.1394H5.52204V37.6258ZM8.01945 43.1394V37.6258H11.8409V38.3889H8.92327V39.9991H11.4128V40.7622H8.92327V42.4182H11.8409V43.1813L8.01945 43.1394ZM16.7762 43.1394L14.0013 39.2589V43.1394H13.1094V37.6258H13.9379L16.7128 41.4987V37.6258H17.6206V43.1394H16.7762ZM22.8691 43.1394L20.0942 39.2589V43.1394H19.1983V37.6258H20.0268L22.8017 41.4987V37.6258H23.7055V43.1394H22.8691ZM28.7202 43.1394L28.3238 42.0328H25.9453L25.5489 43.1394H24.5777L26.7698 37.6258H27.4992L29.6914 43.1394H28.7202ZM27.1345 38.8735L26.2029 41.3193H28.0423L27.1345 38.8735ZM32.5773 37.6258H33.4851V43.1394H32.5931L32.5773 37.6258ZM38.7415 43.1394L35.9666 39.2589V43.1394H35.0866V37.6258H35.9191L38.6939 41.4987V37.6258H39.6017V43.1394H38.7415ZM42.7493 43.1852C42.3631 43.2126 41.9753 43.1619 41.6107 43.0364C41.2462 42.9108 40.9129 42.7133 40.6324 42.4564L41.2389 41.9069C41.4415 42.0917 41.6818 42.2339 41.9445 42.3246C42.2073 42.4152 42.4867 42.4523 42.7651 42.4335C43.5579 42.4335 44.0019 42.1244 44.0019 41.5902C44.0093 41.4838 43.9917 41.3771 43.9505 41.2781C43.9094 41.179 43.8457 41.0901 43.7641 41.0179C43.5803 40.8703 43.3493 40.7882 43.11 40.7851L42.4044 40.6936C41.9894 40.6569 41.5949 40.5029 41.2706 40.2509C41.1224 40.1168 41.0065 39.953 40.9311 39.771C40.8558 39.589 40.8228 39.3934 40.8346 39.1978C40.8346 38.2363 41.5917 37.58 42.8167 37.58C43.1535 37.5607 43.4911 37.6061 43.8096 37.7135C44.1281 37.8209 44.4212 37.9883 44.6719 38.2058L44.0931 38.7323C43.7352 38.4303 43.2679 38.2767 42.7929 38.305C42.0872 38.305 41.6988 38.6865 41.6988 39.1673C41.6944 39.2637 41.7128 39.3599 41.7526 39.4484C41.7924 39.537 41.8526 39.6157 41.9287 39.6786C42.1242 39.8199 42.3556 39.9082 42.5986 39.9343L43.2805 40.0258C43.6878 40.0512 44.0776 40.1949 44.3983 40.4379C44.5636 40.5811 44.693 40.7585 44.7768 40.9568C44.8605 41.1551 44.8965 41.369 44.882 41.5826C44.882 42.5976 43.9861 43.2004 42.7334 43.2004L42.7493 43.1852ZM48.1682 43.2004C46.9512 43.2004 46.0276 42.4373 46.0276 41.2926V37.6258H46.9314V41.243C46.9493 41.5476 47.0877 41.834 47.318 42.0436C47.5484 42.2531 47.8533 42.3698 48.1702 42.3698C48.4872 42.3698 48.7921 42.2531 49.0224 42.0436C49.2528 41.834 49.3911 41.5476 49.409 41.243V37.6258H50.3445V41.2812C50.3445 42.4259 49.413 43.189 48.196 43.189L48.1682 43.2004ZM55.1412 43.1432L53.8845 40.8271H52.7508V43.1508H51.843V37.6258H54.162C55.2958 37.6258 56.0172 38.2974 56.0172 39.236C56.0265 39.5751 55.9129 39.9068 55.6959 40.1741C55.4789 40.4414 55.1721 40.6278 54.828 40.7012L56.2035 43.1394L55.1412 43.1432ZM54.0907 38.3813H52.7468V40.106H54.0907C54.6972 40.106 55.1094 39.7893 55.1094 39.2474C55.1106 39.1234 55.084 39.0006 55.0315 38.8872C54.9791 38.7739 54.9019 38.6728 54.8053 38.5907C54.7087 38.5085 54.5949 38.4473 54.4716 38.4112C54.3483 38.3751 54.2184 38.3649 54.0907 38.3813ZM60.794 43.1432L60.3976 42.0367H58.0191L57.6227 43.1432H56.6475L58.8397 37.6296H59.5731L61.7652 43.1432H60.794ZM59.2084 38.8773L58.2768 41.3231H60.1161L59.2084 38.8773ZM66.2804 43.1432L63.5055 39.2627V43.1432H62.6334V37.6258H63.4658L66.2407 41.4987V37.6258H67.1485V43.1394L66.2804 43.1432ZM70.6409 43.189C70.0525 43.2024 69.4824 42.9912 69.0553 42.6014C68.4686 42.0596 68.4765 41.4567 68.4765 40.3845C68.4765 39.3123 68.4765 38.7133 69.0553 38.1714C69.2663 37.9777 69.515 37.8261 69.7872 37.7252C70.0593 37.6244 70.3494 37.5763 70.6409 37.5838C70.9511 37.5754 71.2598 37.6286 71.5477 37.7402C71.8355 37.8518 72.0963 38.0194 72.3138 38.2325L71.7073 38.7972C71.5759 38.6491 71.4123 38.5306 71.228 38.4501C71.0437 38.3697 70.8433 38.3293 70.6409 38.3317C70.4784 38.3282 70.3168 38.3562 70.1656 38.4138C70.0145 38.4715 69.8768 38.5578 69.7609 38.6675C69.4675 38.9613 69.4081 39.278 69.4081 40.3845C69.4081 41.491 69.4675 41.8115 69.7609 42.1053C69.877 42.2145 70.0148 42.3002 70.1659 42.3572C70.3171 42.4142 70.4786 42.4415 70.6409 42.4373C70.8434 42.4405 71.0441 42.4004 71.2285 42.3199C71.4129 42.2394 71.5764 42.1205 71.7073 41.9718L72.3138 42.5403C72.0963 42.7534 71.8355 42.921 71.5477 43.0326C71.2598 43.1442 70.9511 43.1974 70.6409 43.189ZM73.5546 43.1432V37.6258H77.38V38.3889H74.4624V39.9991H76.9518V40.7622H74.4624V42.4182H77.38V43.1813L73.5546 43.1432ZM84.2577 42.5556C83.8301 42.9541 83.2608 43.1806 82.6657 43.1891C82.0705 43.1976 81.4944 42.9875 81.0547 42.6014C80.468 42.0596 80.476 41.4567 80.476 40.3845C80.476 39.3123 80.476 38.7133 81.0547 38.1714C81.265 37.9767 81.5136 37.8244 81.7859 37.7234C82.0582 37.6225 82.3487 37.5751 82.6404 37.5838C82.9778 37.5708 83.314 37.6289 83.6256 37.7541C83.9372 37.8793 84.2165 38.0687 84.4441 38.3088L83.8296 38.8773C83.6861 38.7069 83.5049 38.5694 83.2991 38.475C83.0934 38.3806 82.8683 38.3316 82.6404 38.3317C82.4755 38.3294 82.3118 38.3586 82.1587 38.4175C82.0056 38.4765 81.8662 38.564 81.7484 38.6751C81.4551 38.9689 81.3956 39.278 81.3956 40.3845C81.3956 41.491 81.4551 41.8115 81.7484 42.1053C82.0037 42.3282 82.3388 42.4471 82.6833 42.4372C83.0278 42.4272 83.3548 42.2891 83.5957 42.0519C83.8067 41.8064 83.9117 41.4922 83.8891 41.1743V40.8729H82.6404V40.1594H84.7969V40.9912C84.8265 41.2729 84.7949 41.5574 84.7042 41.8267C84.6134 42.0961 84.4654 42.3443 84.2696 42.5556H84.2577ZM89.423 43.1432L88.1386 40.8271H87.0049V43.1508H86.0971V37.6258H88.4003C89.534 37.6258 90.2555 38.2974 90.2555 39.236C90.264 39.5749 90.1501 39.9062 89.9333 40.1734C89.7164 40.4406 89.41 40.6271 89.0662 40.7012L90.4418 43.1394L89.423 43.1432ZM88.3765 38.3813H87.0326V40.106H88.3765C88.5041 40.1223 88.6339 40.1123 88.7572 40.0764C88.8805 40.0406 88.9944 39.9798 89.0913 39.8982C89.1882 39.8165 89.2658 39.7159 89.319 39.603C89.3722 39.4901 89.3998 39.3676 89.3998 39.2436C89.3998 39.1197 89.3722 38.9971 89.319 38.8843C89.2658 38.7714 89.1882 38.6707 89.0913 38.5891C88.9944 38.5074 88.8805 38.4466 88.7572 38.4108C88.6339 38.375 88.5041 38.3649 88.3765 38.3813ZM95.1393 42.5976C94.7124 42.9877 94.1422 43.199 93.5536 43.1852C93.262 43.1935 92.9716 43.1458 92.6994 43.0449C92.4271 42.9441 92.1785 42.792 91.968 42.5976C91.3813 42.0557 91.3892 41.4529 91.3892 40.3807C91.3892 39.3085 91.3892 38.7094 91.968 38.1676C92.1778 37.9723 92.4264 37.8197 92.6988 37.7187C92.9712 37.6178 93.2619 37.5706 93.5536 37.58C93.8452 37.5723 94.1354 37.6203 94.4075 37.7211C94.6797 37.822 94.9284 37.9737 95.1393 38.1676C95.726 38.7094 95.7101 39.3123 95.7101 40.3807C95.7101 41.4491 95.7101 42.0557 95.1393 42.5976ZM94.4495 38.6713C94.2098 38.4509 93.8911 38.3279 93.5596 38.3279C93.2281 38.3279 92.9093 38.4509 92.6696 38.6713C92.3723 38.9651 92.3168 39.2742 92.3168 40.3807C92.3168 41.4872 92.3723 41.8001 92.6696 42.0939C92.9107 42.3117 93.2289 42.433 93.5596 42.433C93.8902 42.433 94.2085 42.3117 94.4495 42.0939C94.7429 41.8001 94.8024 41.491 94.8024 40.3807C94.8024 39.2703 94.7429 38.9651 94.4495 38.6713ZM99.1034 43.1852C97.8864 43.1852 96.9628 42.422 96.9628 41.2774V37.6258H97.8666V41.243C97.8845 41.5476 98.0229 41.834 98.2532 42.0436C98.4836 42.2531 98.7885 42.3698 99.1054 42.3698C99.4224 42.3698 99.7273 42.2531 99.9576 42.0436C100.188 41.834 100.326 41.5476 100.344 41.243V37.6258H101.252V41.2812C101.252 42.4259 100.32 43.189 99.1034 43.189V43.1852ZM105.014 40.9759H103.654V43.1432H102.746V37.6258H105.014C106.183 37.6258 106.933 38.3393 106.933 39.297C106.933 40.2548 106.183 40.9721 105.014 40.9721V40.9759ZM104.966 38.3775H103.654V40.2128H104.966C105.101 40.2272 105.236 40.2143 105.365 40.1747C105.493 40.1352 105.612 40.07 105.713 39.9834C105.813 39.8968 105.894 39.7907 105.949 39.6721C106.004 39.5535 106.032 39.4251 106.032 39.2951C106.032 39.1652 106.004 39.0368 105.949 38.9182C105.894 38.7996 105.813 38.6935 105.713 38.6069C105.612 38.5203 105.493 38.4551 105.365 38.4155C105.236 38.376 105.101 38.363 104.966 38.3775Z" fill="#0C121A"/>
<path d="M94.2309 6.10495C94.0622 5.9414 93.8614 5.81166 93.6403 5.72325C93.4191 5.63483 93.182 5.58949 92.9425 5.58985C92.4956 5.59233 92.068 5.76521 91.7533 6.07061C91.5982 6.22104 91.4758 6.39979 91.3934 6.59636C91.3111 6.79294 91.2703 7.00337 91.2736 7.2153C91.2728 7.44494 91.3194 7.67245 91.4105 7.88466C91.5017 8.09686 91.6357 8.28955 91.8048 8.45156L92.443 9.06588L94.881 6.71164L94.2309 6.10495Z" fill="#147B34"/>
<path d="M100.69 8.41349C100.858 8.2538 100.991 8.06368 101.082 7.85412C101.173 7.64455 101.22 7.41969 101.221 7.19249C101.219 6.766 101.047 6.35648 100.741 6.04781C100.585 5.89848 100.399 5.78072 100.195 5.70144C99.9908 5.62216 99.7722 5.58295 99.552 5.58612C99.3082 5.58276 99.0662 5.62701 98.8407 5.7162C98.6152 5.80539 98.4108 5.93767 98.2399 6.10504L97.5977 6.72317L100.024 9.05833L100.69 8.41349Z" fill="#147B34"/>
<path d="M96.2329 8.0166L93.791 10.3708L96.225 12.7098L98.6629 10.3556L96.2329 8.0166Z" fill="#147B34"/>
<path d="M98.274 14.6825C98.442 14.8456 98.6422 14.9748 98.8627 15.0626C99.0832 15.1504 99.3197 15.195 99.5584 15.1938C100.001 15.1916 100.427 15.0264 100.748 14.7321C101.038 14.399 101.202 13.9803 101.211 13.5455C101.213 13.3164 101.168 13.0893 101.078 12.8771C100.988 12.665 100.856 12.472 100.688 12.3092L100.01 11.6567L97.5684 14.0072L98.274 14.6825Z" fill="#147B34"/>
<path d="M91.7778 12.3092C91.6082 12.4708 91.4738 12.6634 91.3826 12.8757C91.2914 13.088 91.2451 13.3157 91.2466 13.5454C91.2411 13.7593 91.2809 13.972 91.3635 14.1707C91.446 14.3693 91.5696 14.5498 91.7268 14.7011C91.884 14.8523 92.0714 14.9713 92.2778 15.0508C92.4842 15.1302 92.7052 15.1685 92.9274 15.1633C93.1659 15.1636 93.4021 15.1186 93.6225 15.0309C93.8429 14.9431 94.0432 14.8144 94.2118 14.652L94.8817 14.0033L92.4517 11.6605L91.7778 12.3092Z" fill="#147B34"/>
<path d="M103.829 3.05288C102.83 2.09207 101.644 1.33011 100.339 0.810504C99.0336 0.2909 97.6348 0.0238289 96.2224 0.0245375C94.81 0.0252462 93.4116 0.293721 92.1069 0.814634C90.8023 1.33555 89.6171 2.09869 88.6189 3.06051C87.6207 4.02232 86.829 5.16396 86.2892 6.42024C85.7494 7.67653 85.4719 9.02286 85.4727 10.3824C85.4734 11.7419 85.7523 13.0879 86.2935 14.3436C86.8347 15.5994 87.6276 16.7402 88.6268 17.701C89.6261 18.6618 90.8121 19.4238 92.1173 19.9434C93.4225 20.463 94.8212 20.7301 96.2336 20.7294C97.6461 20.7287 99.0445 20.4602 100.349 19.9393C101.654 19.4184 102.839 18.6552 103.837 17.6934C104.835 16.7316 105.627 15.59 106.167 14.3337C106.707 13.0774 106.984 11.7311 106.983 10.3716C106.983 9.01206 106.704 7.66602 106.163 6.41027C105.621 5.15453 104.829 4.01369 103.829 3.05288ZM102.097 16.026C101.761 16.3474 101.363 16.6019 100.925 16.7747C100.487 16.9476 100.018 17.0355 99.544 17.0333C99.0529 17.0359 98.5663 16.9437 98.1128 16.7621C97.6593 16.5806 97.2483 16.3134 96.9039 15.9764L96.2261 15.3239L95.5363 15.9535C95.1929 16.2908 94.7826 16.5581 94.3298 16.7397C93.8769 16.9213 93.3907 17.0133 92.9001 17.0104C92.4289 17.0104 91.9624 16.9206 91.5275 16.7461C91.0925 16.5716 90.6978 16.316 90.3661 15.9938C90.0344 15.6717 89.7723 15.2895 89.5948 14.8694C89.4174 14.4492 89.3282 13.9994 89.3324 13.5458C89.3297 13.0731 89.4255 12.6047 89.6141 12.1682C89.8027 11.7317 90.0803 11.3361 90.4305 11.0046L91.1044 10.3522L90.4463 9.71876C90.0962 9.38731 89.8186 8.99165 89.63 8.55518C89.4414 8.11871 89.3456 7.65027 89.3483 7.17756C89.344 6.72145 89.4343 6.2691 89.6136 5.84692C89.793 5.42474 90.058 5.04118 90.3931 4.71865C90.7282 4.39612 91.1267 4.14108 91.5653 3.96841C92.0039 3.79574 92.4738 3.70891 92.9477 3.71298C93.4386 3.71168 93.9249 3.80447 94.3782 3.98593C94.8314 4.1674 95.2427 4.4339 95.5878 4.76991L96.2419 5.39567L96.892 4.76991C97.2381 4.43509 97.6495 4.16937 98.1026 3.98799C98.5556 3.80662 99.0415 3.71316 99.5321 3.71298C100.006 3.70934 100.476 3.79654 100.914 3.96949C101.352 4.14244 101.75 4.39767 102.085 4.7203C102.757 5.37448 103.133 6.25768 103.132 7.17756C103.131 7.64987 103.034 8.11749 102.846 8.55357C102.657 8.98967 102.381 9.38564 102.034 9.71876L101.383 10.3445L102.069 11.0046C102.418 11.3368 102.695 11.7327 102.882 12.169C103.07 12.6054 103.166 13.0735 103.163 13.5458C103.147 14.4652 102.767 15.3439 102.101 16.0031" fill="#147B34"/>
<path d="M18.6707 15.8425C18.6707 18.2768 18.0259 20.1528 16.7362 21.4705C15.4466 22.7882 13.6997 23.447 11.4957 23.447C9.27838 23.447 7.53283 22.7882 6.25903 21.4705C4.98522 20.1528 4.34038 18.2768 4.32453 15.8425V0.488403H0.0234375V15.6937C0.0234375 19.405 1.08054 22.2769 3.19475 24.3093C5.35388 26.3214 8.12085 27.3249 11.4957 27.3198C14.8705 27.3148 17.6335 26.2973 19.7847 24.2673C21.9227 22.2324 22.9916 19.3719 22.9916 15.686V0.488403H18.6707V15.8425Z" fill="#0C121A"/>
<path d="M44.671 13.3546C43.0762 12.5395 41.3985 11.8849 39.6642 11.401L36.5365 10.5349L35.7437 10.2716C35.379 10.1457 35.054 10.0274 34.7646 9.91292C34.5335 9.82736 34.3117 9.72 34.1026 9.5924C33.0375 8.86489 32.505 8.07633 32.505 7.22672C32.5023 6.73756 32.6327 6.25623 32.883 5.83053C33.1333 5.40483 33.495 5.04956 33.9321 4.79999C34.8835 4.18694 36.2723 3.87915 38.0984 3.87661C41.1711 3.89798 44.1766 4.74508 46.7759 6.32242V2.18247C44.1216 0.695796 41.0935 -0.059271 38.0231 -6.30538e-05C34.976 -6.30538e-05 32.5579 0.652408 30.7687 1.95735C29.9138 2.5536 29.2231 3.34184 28.7568 4.25354C28.2905 5.16524 28.0626 6.17278 28.0929 7.18856C28.0929 9.59749 29.0311 11.3654 30.9075 12.4923C31.7806 13.0028 32.6954 13.4443 33.6427 13.8125C34.5307 14.1368 35.716 14.5031 37.2104 14.9037L37.7575 15.0526C39.0403 15.3735 40.2953 15.7894 41.5115 16.2964C42.0229 16.4827 42.4985 16.7496 42.9188 17.0863C43.2986 17.3803 43.6048 17.7528 43.8147 18.1762C44.0247 18.5996 44.1331 19.063 44.1318 19.5321C44.1318 20.7378 43.5372 21.6879 42.3519 22.39C41.1667 23.0921 39.6405 23.4469 37.7892 23.4469C35.8642 23.4382 33.9569 23.093 32.1601 22.4281C30.5564 21.8761 29.0637 21.0616 27.748 20.0205V24.5C30.4304 26.3824 33.8581 27.3236 38.031 27.3236C41.0279 27.3236 43.5306 26.6202 45.5391 25.2136C46.4984 24.5717 47.2755 23.7089 47.7997 22.7039C48.3238 21.6988 48.5783 20.5835 48.5399 19.4596C48.3867 16.6615 47.097 14.6265 44.671 13.3546Z" fill="#0C121A"/>
<path d="M74.812 11.63H74.0192L67.3911 11.6376V15.7776H74.0073V19.1163C74.0095 19.9167 73.759 20.6989 73.2889 21.3592C72.8188 22.0195 72.1514 22.5267 71.3751 22.8136C70.1056 23.2589 68.7619 23.4761 67.4109 23.4546C66.1183 23.4787 64.8336 23.255 63.6317 22.7964C62.4298 22.3379 61.3347 21.6537 60.4103 20.7837C60.2914 20.6692 60.1883 20.5471 60.0773 20.4288C58.6623 18.899 57.8122 16.962 57.6592 14.9191C57.6195 14.5375 57.5957 14.1254 57.5957 13.7095C57.5957 10.8529 58.5603 8.49484 60.4896 6.63536C62.4188 4.77588 64.8686 3.86014 67.8391 3.88812C70.7639 3.88188 73.6187 4.74982 76.0092 6.37209V2.25885C73.7179 0.752949 70.9033 0 67.5655 0C63.4243 0 59.9967 1.29222 57.2826 3.87667C54.5685 6.46112 53.2008 9.7222 53.1797 13.6599C53.1797 16.9312 54.1152 19.7433 55.9863 22.0963C56.3733 22.585 56.7931 23.049 57.2429 23.4851C58.3085 24.4857 59.5329 25.3165 60.8701 25.9462C62.9123 26.8802 65.1502 27.3501 67.4109 27.3198C69.5684 27.3361 71.7057 26.9189 73.6862 26.095L74.039 25.9424C75.3159 25.3722 76.3969 24.4627 77.1547 23.3209C77.9125 22.1791 78.3155 20.8527 78.3163 19.4978V11.63H74.812Z" fill="#0C121A"/>
</g>
<defs>
<clipPath id="clip0_932_11631">
<rect width="107" height="43.1852" fill="white"/>
</clipPath>
</defs>
</svg>
